<svg width="385" height="399" viewBox="0 0 385 399" fill="none" xmlns="http://www.w3.org/2000/svg">
<path d="M88.835 102.299L192.257 32L295.68 102.299" stroke="black" stroke-width="1.9418" stroke-linecap="round" stroke-linejoin="round"/>
<path d="M332.746 114.297H51.772V374.908H332.746V114.297Z" fill="#C49969"/>
<path d="M332.746 114.297H51.772V127.57H332.746V114.297Z" fill="#A46C38"/>
<path d="M302.921 142.683H81.5552V346.572H302.921V142.683Z" fill="#F5DDA9"/>
<path d="M384.477 379.912H0.000244141V394.093H384.477V379.912Z" fill="black"/>
<path d="M384.477 95.2087H0.000244141V109.39H384.477V95.2087Z" fill="black"/>
<path d="M350.36 375.02H34.1138V399H350.36V375.02Z" fill="#803225"/>
<path d="M350.36 90.3179H34.1138V114.298H350.36V90.3179Z" fill="#803225"/>
<path d="M313.893 90.3179H70.5815V114.298H313.893V90.3179Z" fill="#49494D"/>
<path d="M313.893 375.02H70.5815V399H313.893V375.02Z" fill="#49494D"/>
<path d="M18.4897 302.649C18.4897 302.649 51.8879 238.914 51.8879 186.333C51.8879 186.333 72.4927 295.973 34.2323 322.821" stroke="black" stroke-width="1.9418" stroke-linecap="round" stroke-linejoin="round"/>
<path d="M356.496 303.24C356.496 303.24 306.558 241.975 331.547 186.398C331.547 186.398 352.152 296.038 313.892 322.886" stroke="black" stroke-width="1.9418" stroke-linecap="round" stroke-linejoin="round"/>
<path d="M51.0947 214.993C64.5001 214.993 75.3673 204.125 75.3673 190.72C75.3673 177.315 64.5001 166.448 51.0947 166.448C37.6893 166.448 26.8223 177.315 26.8223 190.72C26.8223 204.125 37.6893 214.993 51.0947 214.993Z" fill="#803225"/>
<path d="M355.067 190.218C355.075 195.022 353.657 199.72 350.993 203.718C348.329 207.715 344.538 210.832 340.101 212.674C335.665 214.516 330.781 215 326.069 214.065C321.357 213.13 317.029 210.817 313.632 207.42C310.235 204.023 307.922 199.695 306.987 194.983C306.052 190.271 306.536 185.387 308.377 180.95C310.219 176.513 313.336 172.723 317.334 170.059C321.331 167.395 326.03 165.977 330.834 165.984C337.261 165.984 343.425 168.538 347.97 173.082C352.514 177.627 355.067 183.791 355.067 190.218Z" fill="#803225"/>
<path d="M216.545 25.2339C216.552 30.0378 215.134 34.736 212.47 38.7335C209.806 42.731 206.015 45.848 201.579 47.6899C197.142 49.5319 192.258 50.0159 187.546 49.0806C182.834 48.1452 178.506 45.8327 175.109 42.4358C171.712 39.0389 169.399 34.7104 168.464 29.9983C167.529 25.2863 168.013 20.4027 169.855 15.9659C171.696 11.5291 174.813 7.73872 178.811 5.07456C182.809 2.41041 187.507 0.992375 192.311 1.00003C198.738 1.00003 204.902 3.55317 209.447 8.09789C213.991 12.6426 216.545 18.8067 216.545 25.2339Z" fill="#803225"/>
<g filter="url(#filter0_d_1_3580)">
<path d="M207.999 25.4753C208.004 28.543 207.099 31.5432 205.398 34.0959C203.696 36.6487 201.276 38.6391 198.442 39.8154C195.609 40.9916 192.491 41.3007 189.482 40.7034C186.473 40.1061 183.709 38.6293 181.539 36.4601C179.37 34.2909 177.893 31.5268 177.296 28.5178C176.699 25.5088 177.008 22.3902 178.184 19.557C179.36 16.7237 181.351 14.3032 183.904 12.6019C186.456 10.9007 189.456 9.99513 192.524 10C196.628 10 200.565 11.6304 203.467 14.5326C206.369 17.4348 207.999 21.371 207.999 25.4753Z" fill="#A46C38"/>
</g>
<path d="M157.025 197.58L155.585 195.66L163.505 197.22V201H141.725V197.22L151.145 195.72L149.645 197.58V165L151.685 165.12L141.545 170.82L139.145 166.32L150.905 158.64H157.025V197.58ZM182.756 201.66C179.116 201.66 176.136 200.88 173.816 199.32C171.496 197.72 169.796 195.34 168.716 192.18C167.636 189.02 167.096 185.06 167.096 180.3C167.096 175.42 167.656 171.34 168.776 168.06C169.936 164.78 171.716 162.32 174.116 160.68C176.556 159.04 179.696 158.22 183.536 158.22C187.336 158.22 190.356 159 192.596 160.56C194.836 162.08 196.436 164.4 197.396 167.52C198.396 170.6 198.896 174.48 198.896 179.16C198.896 184.08 198.316 188.22 197.156 191.58C196.036 194.94 194.276 197.46 191.876 199.14C189.516 200.82 186.476 201.66 182.756 201.66ZM182.936 196.02C184.976 196.02 186.596 195.44 187.796 194.28C188.996 193.08 189.856 191.26 190.376 188.82C190.936 186.34 191.216 183.26 191.216 179.58C191.256 175.82 191.016 172.8 190.496 170.52C189.976 168.2 189.116 166.52 187.916 165.48C186.756 164.4 185.216 163.86 183.296 163.86C181.216 163.86 179.536 164.46 178.256 165.66C177.016 166.82 176.116 168.6 175.556 171C174.996 173.4 174.716 176.42 174.716 180.06C174.716 183.7 174.976 186.7 175.496 189.06C176.056 191.38 176.936 193.12 178.136 194.28C179.376 195.44 180.976 196.02 182.936 196.02ZM220.959 201.66C217.319 201.66 214.339 200.88 212.019 199.32C209.699 197.72 207.999 195.34 206.919 192.18C205.839 189.02 205.299 185.06 205.299 180.3C205.299 175.42 205.859 171.34 206.979 168.06C208.139 164.78 209.919 162.32 212.319 160.68C214.759 159.04 217.899 158.22 221.739 158.22C225.539 158.22 228.559 159 230.799 160.56C233.039 162.08 234.639 164.4 235.599 167.52C236.599 170.6 237.099 174.48 237.099 179.16C237.099 184.08 236.519 188.22 235.359 191.58C234.239 194.94 232.479 197.46 230.079 199.14C227.719 200.82 224.679 201.66 220.959 201.66ZM221.139 196.02C223.179 196.02 224.799 195.44 225.999 194.28C227.199 193.08 228.059 191.26 228.579 188.82C229.139 186.34 229.419 183.26 229.419 179.58C229.459 175.82 229.219 172.8 228.699 170.52C228.179 168.2 227.319 166.52 226.119 165.48C224.959 164.4 223.419 163.86 221.499 163.86C219.419 163.86 217.739 164.46 216.459 165.66C215.219 166.82 214.319 168.6 213.759 171C213.199 173.4 212.919 176.42 212.919 180.06C212.919 183.7 213.179 186.7 213.699 189.06C214.259 191.38 215.139 193.12 216.339 194.28C217.579 195.44 219.179 196.02 221.139 196.02Z" fill="#770613"/>
<path d="M83.219 270V268.892L85.1965 268.646V259.057L83.1838 259.093V258.011L86.928 257.203V268.646L88.8967 268.892V270H83.219ZM94.7151 270.184C93.4612 270.184 92.468 269.748 91.7356 268.875C91.0032 268.002 90.637 266.751 90.637 265.122V262.09C90.637 260.461 91.0002 259.21 91.7268 258.337C92.4534 257.458 93.4436 257.018 94.6975 257.018C95.9573 257.018 96.9534 257.458 97.6858 258.337C98.4182 259.21 98.7844 260.461 98.7844 262.09V265.122C98.7844 266.757 98.4211 268.01 97.6946 268.884C96.968 269.751 95.9749 270.184 94.7151 270.184ZM94.7151 268.831C95.4827 268.831 96.0627 268.55 96.4553 267.987C96.8538 267.425 97.053 266.587 97.053 265.473V261.72C97.053 260.613 96.8508 259.781 96.4465 259.224C96.0481 258.662 95.4651 258.381 94.6975 258.381C93.9417 258.381 93.3645 258.662 92.9661 259.224C92.5676 259.781 92.3684 260.613 92.3684 261.72V265.473C92.3684 266.581 92.5706 267.419 92.9749 267.987C93.3792 268.55 93.9592 268.831 94.7151 268.831ZM104.981 270.184C103.727 270.184 102.734 269.748 102.001 268.875C101.269 268.002 100.903 266.751 100.903 265.122V262.09C100.903 260.461 101.266 259.21 101.992 258.337C102.719 257.458 103.709 257.018 104.963 257.018C106.223 257.018 107.219 257.458 107.951 258.337C108.684 259.21 109.05 260.461 109.05 262.09V265.122C109.05 266.757 108.687 268.01 107.96 268.884C107.234 269.751 106.24 270.184 104.981 270.184ZM104.981 268.831C105.748 268.831 106.328 268.55 106.721 267.987C107.119 267.425 107.319 266.587 107.319 265.473V261.72C107.319 260.613 107.116 259.781 106.712 259.224C106.314 258.662 105.731 258.381 104.963 258.381C104.207 258.381 103.63 258.662 103.232 259.224C102.833 259.781 102.634 260.613 102.634 261.72V265.473C102.634 266.581 102.836 267.419 103.24 267.987C103.645 268.55 104.225 268.831 104.981 268.831ZM119.412 273.841C118.955 273.841 118.46 273.776 117.927 273.647C117.394 273.524 116.925 273.354 116.521 273.137L116.969 271.793C117.291 271.963 117.672 272.103 118.112 272.215C118.551 272.326 118.979 272.382 119.395 272.382C120.168 272.382 120.734 272.165 121.091 271.731C121.454 271.298 121.636 270.679 121.636 269.877V268.971C121.325 269.37 120.953 269.672 120.52 269.877C120.086 270.082 119.588 270.184 119.026 270.184C118.252 270.184 117.584 269.994 117.022 269.613C116.459 269.226 116.026 268.69 115.721 268.005C115.422 267.313 115.273 266.513 115.273 265.605V265.421C115.273 264.401 115.422 263.508 115.721 262.74C116.026 261.972 116.459 261.378 117.022 260.956C117.584 260.528 118.258 260.314 119.043 260.314C119.641 260.314 120.165 260.431 120.616 260.666C121.068 260.9 121.446 261.24 121.75 261.685L121.908 260.49H123.367V269.877C123.367 270.697 123.212 271.403 122.902 271.995C122.597 272.587 122.149 273.041 121.557 273.357C120.971 273.679 120.256 273.841 119.412 273.841ZM119.456 268.778C119.978 268.778 120.414 268.661 120.766 268.427C121.117 268.186 121.407 267.849 121.636 267.416V263.039C121.413 262.635 121.123 262.315 120.766 262.081C120.408 261.841 119.978 261.72 119.474 261.72C118.923 261.72 118.463 261.879 118.094 262.195C117.731 262.511 117.458 262.948 117.277 263.505C117.095 264.055 117.004 264.694 117.004 265.421V265.605C117.004 266.56 117.206 267.328 117.611 267.908C118.015 268.488 118.63 268.778 119.456 268.778ZM123.104 261.905L122.427 260.49H124.545V261.597L123.104 261.905ZM128.491 270.184C127.501 270.184 126.748 269.944 126.233 269.464C125.717 268.977 125.459 268.295 125.459 267.416C125.459 266.812 125.623 266.288 125.951 265.843C126.285 265.391 126.766 265.043 127.393 264.797C128.02 264.545 128.77 264.419 129.643 264.419H131.339V263.487C131.339 262.913 131.163 262.468 130.812 262.151C130.466 261.835 129.977 261.677 129.344 261.677C128.946 261.677 128.6 261.726 128.307 261.826C128.014 261.92 127.747 262.052 127.507 262.221L127.323 263.549H125.987V261.369C126.414 261.023 126.912 260.762 127.481 260.587C128.049 260.405 128.679 260.314 129.37 260.314C130.525 260.314 131.43 260.59 132.086 261.14C132.742 261.691 133.071 262.479 133.071 263.505V268.084C133.071 268.207 133.071 268.327 133.071 268.444C133.076 268.561 133.085 268.678 133.097 268.796L134.02 268.892V270H131.532C131.48 269.742 131.439 269.51 131.409 269.305C131.38 269.1 131.36 268.895 131.348 268.69C131.014 269.118 130.595 269.475 130.091 269.762C129.593 270.044 129.06 270.184 128.491 270.184ZM128.746 268.734C129.321 268.734 129.845 268.596 130.32 268.321C130.794 268.046 131.134 267.715 131.339 267.328V265.605H129.581C128.784 265.605 128.187 265.796 127.788 266.177C127.39 266.557 127.191 266.982 127.191 267.451C127.191 267.867 127.32 268.186 127.577 268.409C127.835 268.626 128.225 268.734 128.746 268.734ZM141.912 273.841C141.778 273.841 141.602 273.823 141.385 273.788C141.168 273.759 141.001 273.729 140.884 273.7L141.06 272.338C141.159 272.349 141.297 272.358 141.473 272.364C141.649 272.376 141.769 272.382 141.833 272.382C142.202 272.382 142.501 272.241 142.73 271.96C142.964 271.678 143.181 271.295 143.38 270.808L143.793 269.806L140.427 261.747L139.407 261.606V260.49H143.398V261.606L142.246 261.782L144.101 266.537L144.549 267.776H144.602L146.799 261.782L145.586 261.606V260.49H149.497V261.606L148.513 261.747L144.769 271.459C144.593 271.916 144.379 272.323 144.127 272.68C143.881 273.044 143.576 273.328 143.213 273.533C142.856 273.738 142.422 273.841 141.912 273.841ZM153.259 270.184C152.269 270.184 151.516 269.944 151 269.464C150.485 268.977 150.227 268.295 150.227 267.416C150.227 266.812 150.391 266.288 150.719 265.843C151.053 265.391 151.533 265.043 152.16 264.797C152.787 264.545 153.537 264.419 154.41 264.419H156.107V263.487C156.107 262.913 155.931 262.468 155.579 262.151C155.234 261.835 154.744 261.677 154.112 261.677C153.713 261.677 153.367 261.726 153.074 261.826C152.781 261.92 152.515 262.052 152.275 262.221L152.09 263.549H150.754V261.369C151.182 261.023 151.68 260.762 152.248 260.587C152.817 260.405 153.447 260.314 154.138 260.314C155.292 260.314 156.198 260.59 156.854 261.14C157.51 261.691 157.838 262.479 157.838 263.505V268.084C157.838 268.207 157.838 268.327 157.838 268.444C157.844 268.561 157.853 268.678 157.865 268.796L158.787 268.892V270H156.3C156.247 269.742 156.206 269.51 156.177 269.305C156.148 269.1 156.127 268.895 156.115 268.69C155.781 269.118 155.363 269.475 154.859 269.762C154.361 270.044 153.827 270.184 153.259 270.184ZM153.514 268.734C154.088 268.734 154.613 268.596 155.087 268.321C155.562 268.046 155.902 267.715 156.107 267.328V265.605H154.349C153.552 265.605 152.954 265.796 152.556 266.177C152.157 266.557 151.958 266.982 151.958 267.451C151.958 267.867 152.087 268.186 152.345 268.409C152.603 268.626 152.992 268.734 153.514 268.734ZM164.948 273.656V272.54L166.381 272.294V269.103C166.076 269.461 165.713 269.73 165.291 269.912C164.875 270.094 164.401 270.184 163.867 270.184C163.094 270.184 162.429 269.994 161.872 269.613C161.322 269.226 160.9 268.69 160.607 268.005C160.314 267.319 160.167 266.519 160.167 265.605V265.421C160.167 264.401 160.314 263.508 160.607 262.74C160.9 261.972 161.324 261.378 161.881 260.956C162.438 260.528 163.106 260.314 163.885 260.314C164.442 260.314 164.937 260.42 165.37 260.631C165.804 260.836 166.173 261.137 166.478 261.536L166.618 260.49H168.113V272.294L169.457 272.54V273.656H164.948ZM164.307 268.831C164.787 268.831 165.195 268.725 165.529 268.514C165.868 268.303 166.153 268.005 166.381 267.618V262.845C166.153 262.488 165.868 262.204 165.529 261.993C165.189 261.782 164.787 261.677 164.324 261.677C163.774 261.677 163.32 261.838 162.962 262.16C162.605 262.476 162.338 262.916 162.162 263.478C161.987 264.041 161.899 264.688 161.899 265.421V265.605C161.899 266.566 162.095 267.345 162.488 267.943C162.88 268.535 163.487 268.831 164.307 268.831ZM170.09 270V268.892L171.523 268.646V261.852L170.09 261.606V260.49H173.254V268.646L174.687 268.892V270H170.09ZM171.435 258.143V256.289H173.254V258.143H171.435ZM175.882 270V268.892L177.315 268.646V261.852L175.882 261.606V260.49H178.862L178.985 261.905C179.301 261.401 179.697 261.011 180.171 260.736C180.652 260.455 181.197 260.314 181.806 260.314C182.831 260.314 183.625 260.616 184.188 261.219C184.75 261.817 185.031 262.743 185.031 263.997V268.646L186.464 268.892V270H181.867V268.892L183.3 268.646V264.032C183.3 263.194 183.133 262.599 182.799 262.248C182.471 261.896 181.967 261.72 181.287 261.72C180.789 261.72 180.347 261.841 179.96 262.081C179.579 262.321 179.275 262.649 179.046 263.065V268.646L180.479 268.892V270H175.882ZM192.089 270V268.892L193.522 268.646V257.651L192.089 257.405V256.289H195.253V268.646L196.686 268.892V270H192.089ZM198.198 270V268.892L199.164 268.778L199.138 268.743L196.387 265.192L197.283 263.812L201.124 268.681L202.495 268.892V270H198.198ZM195.13 267.249L194.489 265.886L198.619 261.773L198.663 261.72L197.644 261.606V260.49H201.74V261.606L200.518 261.835L195.13 267.249ZM206.398 270.184C205.407 270.184 204.655 269.944 204.139 269.464C203.623 268.977 203.365 268.295 203.365 267.416C203.365 266.812 203.53 266.288 203.858 265.843C204.192 265.391 204.672 265.043 205.299 264.797C205.926 264.545 206.676 264.419 207.549 264.419H209.245V263.487C209.245 262.913 209.07 262.468 208.718 262.151C208.372 261.835 207.883 261.677 207.25 261.677C206.852 261.677 206.506 261.726 206.213 261.826C205.92 261.92 205.654 262.052 205.413 262.221L205.229 263.549H203.893V261.369C204.321 261.023 204.819 260.762 205.387 260.587C205.955 260.405 206.585 260.314 207.277 260.314C208.431 260.314 209.336 260.59 209.992 261.14C210.649 261.691 210.977 262.479 210.977 263.505V268.084C210.977 268.207 210.977 268.327 210.977 268.444C210.983 268.561 210.991 268.678 211.003 268.796L211.926 268.892V270H209.439C209.386 269.742 209.345 269.51 209.316 269.305C209.286 269.1 209.266 268.895 209.254 268.69C208.92 269.118 208.501 269.475 207.997 269.762C207.499 270.044 206.966 270.184 206.398 270.184ZM206.653 268.734C207.227 268.734 207.751 268.596 208.226 268.321C208.7 268.046 209.04 267.715 209.245 267.328V265.605H207.488C206.691 265.605 206.093 265.796 205.695 266.177C205.296 266.557 205.097 266.982 205.097 267.451C205.097 267.867 205.226 268.186 205.484 268.409C205.741 268.626 206.131 268.734 206.653 268.734ZM217.12 270.184C216.482 270.184 215.884 270.12 215.327 269.991C214.771 269.862 214.179 269.663 213.552 269.393L213.534 267.135H214.844L215.169 268.497C215.497 268.632 215.814 268.731 216.118 268.796C216.429 268.854 216.763 268.884 217.12 268.884C217.823 268.884 218.327 268.749 218.632 268.479C218.937 268.21 219.089 267.876 219.089 267.477C219.089 267.102 218.934 266.786 218.623 266.528C218.319 266.264 217.762 266.042 216.953 265.86C215.805 265.596 214.958 265.245 214.413 264.805C213.874 264.36 213.605 263.768 213.605 263.03C213.605 262.514 213.754 262.054 214.053 261.65C214.352 261.24 214.768 260.915 215.301 260.675C215.834 260.434 216.455 260.314 217.164 260.314C217.885 260.314 218.5 260.396 219.01 260.56C219.526 260.724 219.974 260.944 220.355 261.219L220.443 263.39H219.142L218.861 262.125C218.656 261.972 218.412 261.855 218.131 261.773C217.85 261.691 217.528 261.65 217.164 261.65C216.625 261.65 216.186 261.776 215.846 262.028C215.512 262.28 215.345 262.596 215.345 262.977C215.345 263.2 215.392 263.393 215.486 263.557C215.585 263.721 215.773 263.871 216.048 264.006C216.323 264.135 216.728 264.263 217.261 264.392C218.585 264.703 219.508 265.098 220.03 265.579C220.557 266.059 220.821 266.651 220.821 267.354C220.821 268.157 220.522 268.831 219.924 269.376C219.332 269.915 218.398 270.184 217.12 270.184ZM225.329 270.184C224.339 270.184 223.586 269.944 223.071 269.464C222.555 268.977 222.297 268.295 222.297 267.416C222.297 266.812 222.461 266.288 222.789 265.843C223.123 265.391 223.604 265.043 224.231 264.797C224.858 264.545 225.608 264.419 226.481 264.419H228.177V263.487C228.177 262.913 228.001 262.468 227.65 262.151C227.304 261.835 226.815 261.677 226.182 261.677C225.783 261.677 225.438 261.726 225.145 261.826C224.852 261.92 224.585 262.052 224.345 262.221L224.16 263.549H222.824V261.369C223.252 261.023 223.75 260.762 224.319 260.587C224.887 260.405 225.517 260.314 226.208 260.314C227.363 260.314 228.268 260.59 228.924 261.14C229.58 261.691 229.908 262.479 229.908 263.505V268.084C229.908 268.207 229.908 268.327 229.908 268.444C229.914 268.561 229.923 268.678 229.935 268.796L230.858 268.892V270H228.37C228.318 269.742 228.277 269.51 228.247 269.305C228.218 269.1 228.198 268.895 228.186 268.69C227.852 269.118 227.433 269.475 226.929 269.762C226.431 270.044 225.898 270.184 225.329 270.184ZM225.584 268.734C226.158 268.734 226.683 268.596 227.157 268.321C227.632 268.046 227.972 267.715 228.177 267.328V265.605H226.419C225.622 265.605 225.025 265.796 224.626 266.177C224.228 266.557 224.029 266.982 224.029 267.451C224.029 267.867 224.157 268.186 224.415 268.409C224.673 268.626 225.063 268.734 225.584 268.734ZM232.115 270V268.892L233.547 268.646V257.651L232.115 257.405V256.289H235.279V268.646L236.711 268.892V270H232.115ZM237.863 270V268.892L239.295 268.646V257.651L237.863 257.405V256.289H241.027V268.646L242.459 268.892V270H237.863ZM243.637 270V268.892L245.07 268.646V261.852L243.637 261.606V260.49H246.801V268.646L248.234 268.892V270H243.637ZM244.982 258.143V256.289H246.801V258.143H244.982ZM249.341 270V268.892L250.774 268.646V257.651L249.341 257.405V256.289H252.505V268.646L253.938 268.892V270H249.341ZM255.449 270V268.892L256.416 268.778L256.39 268.743L253.639 265.192L254.535 263.812L258.376 268.681L259.747 268.892V270H255.449ZM252.382 267.249L251.74 265.886L255.871 261.773L255.915 261.72L254.896 261.606V260.49H258.991V261.606L257.77 261.835L252.382 267.249ZM260.661 270V268.892L262.094 268.646V257.651L260.661 257.405V256.289H263.825V268.646L265.258 268.892V270H260.661ZM269.573 270.184C268.583 270.184 267.83 269.944 267.315 269.464C266.799 268.977 266.541 268.295 266.541 267.416C266.541 266.812 266.705 266.288 267.033 265.843C267.367 265.391 267.848 265.043 268.475 264.797C269.102 264.545 269.852 264.419 270.725 264.419H272.421V263.487C272.421 262.913 272.245 262.468 271.894 262.151C271.548 261.835 271.059 261.677 270.426 261.677C270.028 261.677 269.682 261.726 269.389 261.826C269.096 261.92 268.829 262.052 268.589 262.221L268.405 263.549H267.069V261.369C267.496 261.023 267.994 260.762 268.563 260.587C269.131 260.405 269.761 260.314 270.452 260.314C271.607 260.314 272.512 260.59 273.168 261.14C273.824 261.691 274.153 262.479 274.153 263.505V268.084C274.153 268.207 274.153 268.327 274.153 268.444C274.158 268.561 274.167 268.678 274.179 268.796L275.102 268.892V270H272.615C272.562 269.742 272.521 269.51 272.491 269.305C272.462 269.1 272.442 268.895 272.43 268.69C272.096 269.118 271.677 269.475 271.173 269.762C270.675 270.044 270.142 270.184 269.573 270.184ZM269.828 268.734C270.403 268.734 270.927 268.596 271.402 268.321C271.876 268.046 272.216 267.715 272.421 267.328V265.605H270.663C269.866 265.605 269.269 265.796 268.87 266.177C268.472 266.557 268.273 266.982 268.273 267.451C268.273 267.867 268.402 268.186 268.659 268.409C268.917 268.626 269.307 268.734 269.828 268.734ZM276.429 270V268.892L277.862 268.646V261.852L276.429 261.606V260.49H279.408L279.558 261.703L279.575 261.87C279.845 261.384 280.176 261.003 280.569 260.727C280.967 260.452 281.421 260.314 281.931 260.314C282.113 260.314 282.297 260.332 282.485 260.367C282.678 260.396 282.816 260.426 282.898 260.455L282.669 262.063L281.465 261.993C281.008 261.964 280.624 262.069 280.314 262.309C280.003 262.544 279.763 262.86 279.593 263.259V268.646L281.026 268.892V270H276.429ZM283.952 270V268.892L285.385 268.646V261.852L283.952 261.606V260.49H286.932L287.055 261.905C287.371 261.401 287.767 261.011 288.241 260.736C288.722 260.455 289.267 260.314 289.876 260.314C290.902 260.314 291.696 260.616 292.258 261.219C292.821 261.817 293.102 262.743 293.102 263.997V268.646L294.534 268.892V270H289.938V268.892L291.37 268.646V264.032C291.37 263.194 291.203 262.599 290.869 262.248C290.541 261.896 290.037 261.72 289.358 261.72C288.86 261.72 288.417 261.841 288.031 262.081C287.65 262.321 287.345 262.649 287.116 263.065V268.646L288.549 268.892V270H283.952ZM295.703 270V268.892L297.136 268.646V261.852L295.703 261.606V260.49H298.867V268.646L300.3 268.892V270H295.703ZM297.048 258.143V256.289H298.867V258.143H297.048ZM136.226 291.184C135.347 291.184 134.588 290.979 133.949 290.569C133.317 290.153 132.827 289.582 132.482 288.855C132.136 288.123 131.963 287.288 131.963 286.35V286.157C131.963 285.219 132.136 284.387 132.482 283.661C132.827 282.928 133.317 282.354 133.949 281.938C134.588 281.522 135.341 281.314 136.208 281.314C137.087 281.314 137.843 281.522 138.476 281.938C139.115 282.354 139.607 282.926 139.952 283.652C140.298 284.379 140.471 285.214 140.471 286.157V286.35C140.471 287.294 140.298 288.132 139.952 288.864C139.607 289.591 139.117 290.159 138.485 290.569C137.852 290.979 137.099 291.184 136.226 291.184ZM136.226 289.831C136.777 289.831 137.237 289.681 137.606 289.383C137.981 289.078 138.262 288.665 138.449 288.143C138.643 287.616 138.74 287.018 138.74 286.35V286.157C138.74 285.489 138.643 284.894 138.449 284.373C138.262 283.845 137.981 283.432 137.606 283.134C137.231 282.829 136.765 282.677 136.208 282.677C135.657 282.677 135.195 282.829 134.82 283.134C134.445 283.432 134.163 283.845 133.976 284.373C133.788 284.894 133.695 285.489 133.695 286.157V286.35C133.695 287.018 133.788 287.616 133.976 288.143C134.163 288.665 134.445 289.078 134.82 289.383C135.2 289.681 135.669 289.831 136.226 289.831ZM141.543 291V289.892L142.976 289.646V278.651L141.543 278.405V277.289H144.707V289.646L146.14 289.892V291H141.543ZM151.027 291.184C150.253 291.184 149.588 290.994 149.031 290.613C148.481 290.226 148.059 289.69 147.766 289.005C147.473 288.319 147.326 287.519 147.326 286.605V286.421C147.326 285.401 147.473 284.508 147.766 283.74C148.059 282.972 148.484 282.378 149.04 281.956C149.597 281.528 150.265 281.314 151.044 281.314C151.607 281.314 152.102 281.42 152.53 281.631C152.963 281.836 153.332 282.135 153.637 282.527V278.651L152.204 278.405V277.289H153.637H155.368V289.646L156.801 289.892V291H153.865L153.725 289.866C153.414 290.3 153.033 290.628 152.582 290.85C152.137 291.073 151.618 291.184 151.027 291.184ZM151.466 289.778C151.982 289.778 152.415 289.661 152.767 289.427C153.118 289.192 153.408 288.861 153.637 288.433V284.021C153.414 283.623 153.124 283.306 152.767 283.072C152.409 282.838 151.982 282.72 151.484 282.72C150.933 282.72 150.479 282.879 150.121 283.195C149.764 283.506 149.497 283.939 149.322 284.496C149.146 285.047 149.058 285.688 149.058 286.421V286.605C149.058 287.56 149.254 288.328 149.647 288.908C150.039 289.488 150.646 289.778 151.466 289.778ZM157.935 291V289.892L159.367 289.646V282.852L157.935 282.606V281.49H161.099V289.646L162.531 289.892V291H157.935ZM159.28 279.143V277.289H161.099V279.143H159.28ZM163.727 291V289.892L165.159 289.646V282.852L163.727 282.606V281.49H166.706L166.829 282.905C167.146 282.401 167.541 282.011 168.016 281.736C168.496 281.455 169.041 281.314 169.651 281.314C170.676 281.314 171.47 281.616 172.032 282.219C172.595 282.817 172.876 283.743 172.876 284.997V289.646L174.309 289.892V291H169.712V289.892L171.145 289.646V285.032C171.145 284.194 170.978 283.599 170.644 283.248C170.316 282.896 169.812 282.72 169.132 282.72C168.634 282.72 168.192 282.841 167.805 283.081C167.424 283.321 167.119 283.649 166.891 284.065V289.646L168.323 289.892V291H163.727ZM175.478 291V289.892L176.91 289.646V282.852L175.478 282.606V281.49H178.642V289.646L180.074 289.892V291H175.478ZM176.823 279.143V277.289H178.642V279.143H176.823ZM190.05 291.184C189.171 291.184 188.412 290.979 187.774 290.569C187.141 290.153 186.652 289.582 186.306 288.855C185.96 288.123 185.787 287.288 185.787 286.35V286.157C185.787 285.219 185.96 284.387 186.306 283.661C186.652 282.928 187.141 282.354 187.774 281.938C188.412 281.522 189.165 281.314 190.032 281.314C190.911 281.314 191.667 281.522 192.3 281.938C192.939 282.354 193.431 282.926 193.777 283.652C194.122 284.379 194.295 285.214 194.295 286.157V286.35C194.295 287.294 194.122 288.132 193.777 288.864C193.431 289.591 192.942 290.159 192.309 290.569C191.676 290.979 190.923 291.184 190.05 291.184ZM190.05 289.831C190.601 289.831 191.061 289.681 191.43 289.383C191.805 289.078 192.086 288.665 192.274 288.143C192.467 287.616 192.564 287.018 192.564 286.35V286.157C192.564 285.489 192.467 284.894 192.274 284.373C192.086 283.845 191.805 283.432 191.43 283.134C191.055 282.829 190.589 282.677 190.032 282.677C189.482 282.677 189.019 282.829 188.644 283.134C188.269 283.432 187.988 283.845 187.8 284.373C187.613 284.894 187.519 285.489 187.519 286.157V286.35C187.519 287.018 187.613 287.616 187.8 288.143C187.988 288.665 188.269 289.078 188.644 289.383C189.025 289.681 189.493 289.831 190.05 289.831ZM195.367 291V289.892L196.8 289.646V278.651L195.367 278.405V277.289H198.531V289.646L199.964 289.892V291H195.367ZM201.142 291V289.892L202.574 289.646V282.852L201.142 282.606V281.49H204.306V289.646L205.739 289.892V291H201.142ZM202.487 279.143V277.289H204.306V279.143H202.487ZM210.783 291.184C210.145 291.184 209.547 291.12 208.99 290.991C208.434 290.862 207.842 290.663 207.215 290.393L207.198 288.135H208.507L208.832 289.497C209.16 289.632 209.477 289.731 209.781 289.796C210.092 289.854 210.426 289.884 210.783 289.884C211.487 289.884 211.99 289.749 212.295 289.479C212.6 289.21 212.752 288.876 212.752 288.477C212.752 288.102 212.597 287.786 212.286 287.528C211.982 287.264 211.425 287.042 210.616 286.86C209.468 286.596 208.621 286.245 208.076 285.805C207.537 285.36 207.268 284.768 207.268 284.03C207.268 283.514 207.417 283.054 207.716 282.65C208.015 282.24 208.431 281.915 208.964 281.675C209.497 281.434 210.118 281.314 210.827 281.314C211.548 281.314 212.163 281.396 212.673 281.56C213.189 281.724 213.637 281.944 214.018 282.219L214.106 284.39H212.805L212.524 283.125C212.319 282.972 212.075 282.855 211.794 282.773C211.513 282.691 211.191 282.65 210.827 282.65C210.288 282.65 209.849 282.776 209.509 283.028C209.175 283.28 209.008 283.596 209.008 283.977C209.008 284.2 209.055 284.393 209.149 284.557C209.248 284.721 209.436 284.871 209.711 285.006C209.987 285.135 210.391 285.263 210.924 285.392C212.248 285.703 213.171 286.098 213.693 286.579C214.22 287.059 214.484 287.651 214.484 288.354C214.484 289.157 214.185 289.831 213.587 290.376C212.995 290.915 212.061 291.184 210.783 291.184ZM215.697 291V289.892L217.129 289.646V278.651L215.697 278.405V277.289H218.861V282.756C219.189 282.299 219.59 281.944 220.065 281.692C220.539 281.44 221.067 281.314 221.647 281.314C222.666 281.314 223.457 281.619 224.02 282.228C224.582 282.838 224.864 283.775 224.864 285.041V289.646L226.296 289.892V291H221.699V289.892L223.132 289.646V285.023C223.132 284.238 222.962 283.658 222.622 283.283C222.288 282.908 221.787 282.72 221.119 282.72C220.645 282.72 220.211 282.835 219.819 283.063C219.432 283.286 219.113 283.591 218.861 283.977V289.646L220.293 289.892V291H215.697ZM235.911 291L232.528 282.738L231.543 282.606V281.49H235.533V282.606L234.294 282.782L236.404 288.196L236.65 288.961H236.702L236.984 288.196L238.944 282.782L237.669 282.606V281.49H241.651V282.606L240.649 282.738L237.432 291H235.911ZM245.5 291.184C244.51 291.184 243.757 290.944 243.241 290.464C242.726 289.977 242.468 289.295 242.468 288.416C242.468 287.812 242.632 287.288 242.96 286.843C243.294 286.391 243.775 286.043 244.402 285.797C245.029 285.545 245.779 285.419 246.652 285.419H248.348V284.487C248.348 283.913 248.172 283.468 247.821 283.151C247.475 282.835 246.986 282.677 246.353 282.677C245.954 282.677 245.609 282.726 245.316 282.826C245.023 282.92 244.756 283.052 244.516 283.221L244.331 284.549H242.995V282.369C243.423 282.023 243.921 281.762 244.49 281.587C245.058 281.405 245.688 281.314 246.379 281.314C247.533 281.314 248.439 281.59 249.095 282.14C249.751 282.691 250.079 283.479 250.079 284.505V289.084C250.079 289.207 250.079 289.327 250.079 289.444C250.085 289.561 250.094 289.678 250.106 289.796L251.029 289.892V291H248.541C248.489 290.742 248.448 290.51 248.418 290.305C248.389 290.1 248.368 289.895 248.357 289.69C248.023 290.118 247.604 290.475 247.1 290.762C246.602 291.044 246.069 291.184 245.5 291.184ZM245.755 289.734C246.329 289.734 246.854 289.596 247.328 289.321C247.803 289.046 248.143 288.715 248.348 288.328V286.605H246.59C245.793 286.605 245.196 286.796 244.797 287.177C244.399 287.557 244.199 287.982 244.199 288.451C244.199 288.867 244.328 289.186 244.586 289.409C244.844 289.626 245.234 289.734 245.755 289.734ZM147.186 311.184C146.412 311.184 145.747 310.994 145.191 310.613C144.64 310.226 144.218 309.69 143.925 309.005C143.632 308.319 143.486 307.519 143.486 306.605V306.421C143.486 305.401 143.632 304.508 143.925 303.74C144.218 302.972 144.643 302.378 145.199 301.956C145.756 301.528 146.424 301.314 147.203 301.314C147.766 301.314 148.261 301.42 148.689 301.631C149.122 301.836 149.491 302.135 149.796 302.527V298.651L148.364 298.405V297.289H149.796H151.528V309.646L152.96 309.892V311H150.025L149.884 309.866C149.573 310.3 149.193 310.628 148.741 310.85C148.296 311.073 147.778 311.184 147.186 311.184ZM147.625 309.778C148.141 309.778 148.574 309.661 148.926 309.427C149.278 309.192 149.568 308.861 149.796 308.433V304.021C149.573 303.623 149.283 303.306 148.926 303.072C148.569 302.838 148.141 302.72 147.643 302.72C147.092 302.72 146.638 302.879 146.281 303.195C145.923 303.506 145.656 303.939 145.481 304.496C145.305 305.047 145.217 305.688 145.217 306.421V306.605C145.217 307.56 145.413 308.328 145.806 308.908C146.198 309.488 146.805 309.778 147.625 309.778ZM157.232 311.184C156.241 311.184 155.489 310.944 154.973 310.464C154.457 309.977 154.199 309.295 154.199 308.416C154.199 307.812 154.364 307.288 154.692 306.843C155.026 306.391 155.506 306.043 156.133 305.797C156.76 305.545 157.51 305.419 158.383 305.419H160.079V304.487C160.079 303.913 159.904 303.468 159.552 303.151C159.206 302.835 158.717 302.677 158.084 302.677C157.686 302.677 157.34 302.726 157.047 302.826C156.754 302.92 156.488 303.052 156.247 303.221L156.063 304.549H154.727V302.369C155.155 302.023 155.653 301.762 156.221 301.587C156.789 301.405 157.419 301.314 158.111 301.314C159.265 301.314 160.17 301.59 160.826 302.14C161.483 302.691 161.811 303.479 161.811 304.505V309.084C161.811 309.207 161.811 309.327 161.811 309.444C161.817 309.561 161.825 309.678 161.837 309.796L162.76 309.892V311H160.273C160.22 310.742 160.179 310.51 160.15 310.305C160.12 310.1 160.1 309.895 160.088 309.69C159.754 310.118 159.335 310.475 158.831 310.762C158.333 311.044 157.8 311.184 157.232 311.184ZM157.487 309.734C158.061 309.734 158.585 309.596 159.06 309.321C159.534 309.046 159.874 308.715 160.079 308.328V306.605H158.322C157.525 306.605 156.927 306.796 156.529 307.177C156.13 307.557 155.931 307.982 155.931 308.451C155.931 308.867 156.06 309.186 156.318 309.409C156.575 309.626 156.965 309.734 157.487 309.734ZM167.91 311L164.527 302.738L163.542 302.606V301.49H167.532V302.606L166.293 302.782L168.403 308.196L168.649 308.961H168.701L168.983 308.196L170.943 302.782L169.668 302.606V301.49H173.65V302.606L172.648 302.738L169.431 311H167.91ZM178.633 311.184C177.754 311.184 176.995 310.979 176.357 310.569C175.724 310.153 175.235 309.582 174.889 308.855C174.543 308.123 174.37 307.288 174.37 306.35V306.157C174.37 305.219 174.543 304.387 174.889 303.661C175.235 302.928 175.724 302.354 176.357 301.938C176.995 301.522 177.748 301.314 178.615 301.314C179.494 301.314 180.25 301.522 180.883 301.938C181.522 302.354 182.014 302.926 182.36 303.652C182.705 304.379 182.878 305.214 182.878 306.157V306.35C182.878 307.294 182.705 308.132 182.36 308.864C182.014 309.591 181.525 310.159 180.892 310.569C180.259 310.979 179.506 311.184 178.633 311.184ZM178.633 309.831C179.184 309.831 179.644 309.681 180.013 309.383C180.388 309.078 180.669 308.665 180.857 308.143C181.05 307.616 181.147 307.018 181.147 306.35V306.157C181.147 305.489 181.05 304.894 180.857 304.373C180.669 303.845 180.388 303.432 180.013 303.134C179.638 302.829 179.172 302.677 178.615 302.677C178.065 302.677 177.602 302.829 177.227 303.134C176.852 303.432 176.571 303.845 176.383 304.373C176.196 304.894 176.102 305.489 176.102 306.157V306.35C176.102 307.018 176.196 307.616 176.383 308.143C176.571 308.665 176.852 309.078 177.227 309.383C177.608 309.681 178.076 309.831 178.633 309.831ZM183.95 311V309.892L185.383 309.646V298.651L183.95 298.405V297.289H187.115V309.646L188.547 309.892V311H183.95ZM192.863 311.184C191.872 311.184 191.119 310.944 190.604 310.464C190.088 309.977 189.83 309.295 189.83 308.416C189.83 307.812 189.994 307.288 190.323 306.843C190.656 306.391 191.137 306.043 191.764 305.797C192.391 305.545 193.141 305.419 194.014 305.419H195.71V304.487C195.71 303.913 195.534 303.468 195.183 303.151C194.837 302.835 194.348 302.677 193.715 302.677C193.317 302.677 192.971 302.726 192.678 302.826C192.385 302.92 192.118 303.052 191.878 303.221L191.694 304.549H190.358V302.369C190.785 302.023 191.283 301.762 191.852 301.587C192.42 301.405 193.05 301.314 193.741 301.314C194.896 301.314 195.801 301.59 196.457 302.14C197.114 302.691 197.442 303.479 197.442 304.505V309.084C197.442 309.207 197.442 309.327 197.442 309.444C197.448 309.561 197.456 309.678 197.468 309.796L198.391 309.892V311H195.904C195.851 310.742 195.81 310.51 195.781 310.305C195.751 310.1 195.731 309.895 195.719 309.69C195.385 310.118 194.966 310.475 194.462 310.762C193.964 311.044 193.431 311.184 192.863 311.184ZM193.117 309.734C193.692 309.734 194.216 309.596 194.691 309.321C195.165 309.046 195.505 308.715 195.71 308.328V306.605H193.952C193.156 306.605 192.558 306.796 192.159 307.177C191.761 307.557 191.562 307.982 191.562 308.451C191.562 308.867 191.691 309.186 191.948 309.409C192.206 309.626 192.596 309.734 193.117 309.734ZM203.585 311.184C202.947 311.184 202.349 311.12 201.792 310.991C201.236 310.862 200.644 310.663 200.017 310.393L199.999 308.135H201.309L201.634 309.497C201.962 309.632 202.279 309.731 202.583 309.796C202.894 309.854 203.228 309.884 203.585 309.884C204.288 309.884 204.792 309.749 205.097 309.479C205.402 309.21 205.554 308.876 205.554 308.477C205.554 308.102 205.399 307.786 205.088 307.528C204.783 307.264 204.227 307.042 203.418 306.86C202.27 306.596 201.423 306.245 200.878 305.805C200.339 305.36 200.07 304.768 200.07 304.03C200.07 303.514 200.219 303.054 200.518 302.65C200.817 302.24 201.233 301.915 201.766 301.675C202.299 301.434 202.92 301.314 203.629 301.314C204.35 301.314 204.965 301.396 205.475 301.56C205.99 301.724 206.439 301.944 206.82 302.219L206.907 304.39H205.607L205.325 303.125C205.12 302.972 204.877 302.855 204.596 302.773C204.315 302.691 203.992 302.65 203.629 302.65C203.09 302.65 202.651 302.776 202.311 303.028C201.977 303.28 201.81 303.596 201.81 303.977C201.81 304.2 201.857 304.393 201.95 304.557C202.05 304.721 202.238 304.871 202.513 305.006C202.788 305.135 203.193 305.263 203.726 305.392C205.05 305.703 205.973 306.098 206.494 306.579C207.022 307.059 207.285 307.651 207.285 308.354C207.285 309.157 206.987 309.831 206.389 310.376C205.797 310.915 204.863 311.184 203.585 311.184ZM208.498 311V309.892L209.931 309.646V298.651L208.498 298.405V297.289H211.662V302.756C211.99 302.299 212.392 301.944 212.866 301.692C213.341 301.44 213.868 301.314 214.448 301.314C215.468 301.314 216.259 301.619 216.822 302.228C217.384 302.838 217.665 303.775 217.665 305.041V309.646L219.098 309.892V311H214.501V309.892L215.934 309.646V305.023C215.934 304.238 215.764 303.658 215.424 303.283C215.09 302.908 214.589 302.72 213.921 302.72C213.447 302.72 213.013 302.835 212.62 303.063C212.234 303.286 211.914 303.591 211.662 303.977V309.646L213.095 309.892V311H208.498ZM223.932 311.184C223.158 311.184 222.493 310.994 221.937 310.613C221.386 310.226 220.964 309.69 220.671 309.005C220.378 308.319 220.232 307.519 220.232 306.605V306.421C220.232 305.401 220.378 304.508 220.671 303.74C220.964 302.972 221.389 302.378 221.946 301.956C222.502 301.528 223.17 301.314 223.949 301.314C224.512 301.314 225.007 301.42 225.435 301.631C225.868 301.836 226.238 302.135 226.542 302.527V298.651L225.11 298.405V297.289H226.542H228.274V309.646L229.706 309.892V311H226.771L226.63 309.866C226.32 310.3 225.939 310.628 225.488 310.85C225.042 311.073 224.524 311.184 223.932 311.184ZM224.371 309.778C224.887 309.778 225.321 309.661 225.672 309.427C226.024 309.192 226.314 308.861 226.542 308.433V304.021C226.32 303.623 226.03 303.306 225.672 303.072C225.315 302.838 224.887 302.72 224.389 302.72C223.838 302.72 223.384 302.879 223.027 303.195C222.669 303.506 222.403 303.939 222.227 304.496C222.051 305.047 221.963 305.688 221.963 306.421V306.605C221.963 307.56 222.159 308.328 222.552 308.908C222.945 309.488 223.551 309.778 224.371 309.778ZM233.978 311.184C232.988 311.184 232.235 310.944 231.719 310.464C231.203 309.977 230.946 309.295 230.946 308.416C230.946 307.812 231.11 307.288 231.438 306.843C231.772 306.391 232.252 306.043 232.879 305.797C233.506 305.545 234.256 305.419 235.129 305.419H236.825V304.487C236.825 303.913 236.65 303.468 236.298 303.151C235.952 302.835 235.463 302.677 234.83 302.677C234.432 302.677 234.086 302.726 233.793 302.826C233.5 302.92 233.234 303.052 232.993 303.221L232.809 304.549H231.473V302.369C231.901 302.023 232.399 301.762 232.967 301.587C233.535 301.405 234.165 301.314 234.857 301.314C236.011 301.314 236.916 301.59 237.573 302.14C238.229 302.691 238.557 303.479 238.557 304.505V309.084C238.557 309.207 238.557 309.327 238.557 309.444C238.563 309.561 238.572 309.678 238.583 309.796L239.506 309.892V311H237.019C236.966 310.742 236.925 310.51 236.896 310.305C236.866 310.1 236.846 309.895 236.834 309.69C236.5 310.118 236.081 310.475 235.577 310.762C235.079 311.044 234.546 311.184 233.978 311.184ZM234.233 309.734C234.807 309.734 235.331 309.596 235.806 309.321C236.281 309.046 236.62 308.715 236.825 308.328V306.605H235.068C234.271 306.605 233.673 306.796 233.275 307.177C232.876 307.557 232.677 307.982 232.677 308.451C232.677 308.867 232.806 309.186 233.064 309.409C233.322 309.626 233.711 309.734 234.233 309.734ZM151.545 335.656V334.54L152.978 334.294V331.103C152.673 331.461 152.31 331.73 151.888 331.912C151.472 332.094 150.997 332.184 150.464 332.184C149.691 332.184 149.026 331.994 148.469 331.613C147.918 331.226 147.496 330.69 147.203 330.005C146.91 329.319 146.764 328.519 146.764 327.605V327.421C146.764 326.401 146.91 325.508 147.203 324.74C147.496 323.972 147.921 323.378 148.478 322.956C149.034 322.528 149.702 322.314 150.482 322.314C151.038 322.314 151.533 322.42 151.967 322.631C152.401 322.836 152.77 323.137 153.074 323.536L153.215 322.49H154.709V334.294L156.054 334.54V335.656H151.545ZM150.904 330.831C151.384 330.831 151.791 330.725 152.125 330.514C152.465 330.303 152.749 330.005 152.978 329.618V324.845C152.749 324.488 152.465 324.204 152.125 323.993C151.785 323.782 151.384 323.677 150.921 323.677C150.37 323.677 149.916 323.838 149.559 324.16C149.201 324.476 148.935 324.916 148.759 325.478C148.583 326.041 148.495 326.688 148.495 327.421V327.605C148.495 328.566 148.692 329.345 149.084 329.943C149.477 330.535 150.083 330.831 150.904 330.831ZM161.046 332.184C160.167 332.184 159.408 331.979 158.77 331.569C158.137 331.153 157.648 330.582 157.302 329.855C156.956 329.123 156.783 328.288 156.783 327.35V327.157C156.783 326.219 156.956 325.387 157.302 324.661C157.648 323.928 158.137 323.354 158.77 322.938C159.408 322.522 160.161 322.314 161.029 322.314C161.907 322.314 162.663 322.522 163.296 322.938C163.935 323.354 164.427 323.926 164.773 324.652C165.118 325.379 165.291 326.214 165.291 327.157V327.35C165.291 328.294 165.118 329.132 164.773 329.864C164.427 330.591 163.938 331.159 163.305 331.569C162.672 331.979 161.919 332.184 161.046 332.184ZM161.046 330.831C161.597 330.831 162.057 330.681 162.426 330.383C162.801 330.078 163.082 329.665 163.27 329.143C163.463 328.616 163.56 328.018 163.56 327.35V327.157C163.56 326.489 163.463 325.894 163.27 325.373C163.082 324.845 162.801 324.432 162.426 324.134C162.051 323.829 161.585 323.677 161.029 323.677C160.478 323.677 160.015 323.829 159.64 324.134C159.265 324.432 158.984 324.845 158.796 325.373C158.609 325.894 158.515 326.489 158.515 327.157V327.35C158.515 328.018 158.609 328.616 158.796 329.143C158.984 329.665 159.265 330.078 159.64 330.383C160.021 330.681 160.49 330.831 161.046 330.831ZM166.364 332V330.892L167.796 330.646V319.651L166.364 319.405V318.289H169.528V330.646L170.96 330.892V332H166.364ZM172.112 332V330.892L173.544 330.646V319.651L172.112 319.405V318.289H175.276V330.646L176.708 330.892V332H172.112ZM181.024 332.184C180.033 332.184 179.281 331.944 178.765 331.464C178.249 330.977 177.991 330.295 177.991 329.416C177.991 328.812 178.156 328.288 178.484 327.843C178.818 327.391 179.298 327.043 179.925 326.797C180.552 326.545 181.302 326.419 182.175 326.419H183.871V325.487C183.871 324.913 183.696 324.468 183.344 324.151C182.998 323.835 182.509 323.677 181.876 323.677C181.478 323.677 181.132 323.726 180.839 323.826C180.546 323.92 180.28 324.052 180.039 324.221L179.855 325.549H178.519V323.369C178.947 323.023 179.445 322.762 180.013 322.587C180.581 322.405 181.211 322.314 181.903 322.314C183.057 322.314 183.962 322.59 184.618 323.14C185.275 323.691 185.603 324.479 185.603 325.505V330.084C185.603 330.207 185.603 330.327 185.603 330.444C185.609 330.561 185.617 330.678 185.629 330.796L186.552 330.892V332H184.065C184.012 331.742 183.971 331.51 183.942 331.305C183.912 331.1 183.892 330.895 183.88 330.69C183.546 331.118 183.127 331.475 182.623 331.762C182.125 332.044 181.592 332.184 181.024 332.184ZM181.279 330.734C181.853 330.734 182.377 330.596 182.852 330.321C183.326 330.046 183.666 329.715 183.871 329.328V327.605H182.114C181.317 327.605 180.719 327.796 180.321 328.177C179.922 328.557 179.723 328.982 179.723 329.451C179.723 329.867 179.852 330.186 180.11 330.409C180.367 330.626 180.757 330.734 181.279 330.734ZM187.897 332V330.892L189.329 330.646V323.852L187.897 323.606V322.49H190.876L190.999 323.905C191.316 323.401 191.711 323.011 192.186 322.736C192.666 322.455 193.211 322.314 193.821 322.314C194.846 322.314 195.64 322.616 196.202 323.219C196.765 323.817 197.046 324.743 197.046 325.997V330.646L198.479 330.892V332H193.882V330.892L195.315 330.646V326.032C195.315 325.194 195.148 324.599 194.814 324.248C194.486 323.896 193.982 323.72 193.302 323.72C192.804 323.72 192.362 323.841 191.975 324.081C191.594 324.321 191.289 324.649 191.061 325.065V330.646L192.493 330.892V332H187.897ZM199.648 332V330.892L201.08 330.646V323.852L199.648 323.606V322.49H202.812V330.646L204.244 330.892V332H199.648ZM200.992 320.143V318.289H202.812V320.143H200.992ZM205.352 332V330.892L206.784 330.646V319.651L205.352 319.405V318.289H208.516V330.646L209.948 330.892V332H205.352ZM214.264 332.184C213.274 332.184 212.521 331.944 212.005 331.464C211.49 330.977 211.232 330.295 211.232 329.416C211.232 328.812 211.396 328.288 211.724 327.843C212.058 327.391 212.538 327.043 213.165 326.797C213.792 326.545 214.542 326.419 215.415 326.419H217.112V325.487C217.112 324.913 216.936 324.468 216.584 324.151C216.239 323.835 215.749 323.677 215.116 323.677C214.718 323.677 214.372 323.726 214.079 323.826C213.786 323.92 213.52 324.052 213.28 324.221L213.095 325.549H211.759V323.369C212.187 323.023 212.685 322.762 213.253 322.587C213.822 322.405 214.451 322.314 215.143 322.314C216.297 322.314 217.202 322.59 217.859 323.14C218.515 323.691 218.843 324.479 218.843 325.505V330.084C218.843 330.207 218.843 330.327 218.843 330.444C218.849 330.561 218.858 330.678 218.869 330.796L219.792 330.892V332H217.305C217.252 331.742 217.211 331.51 217.182 331.305C217.153 331.1 217.132 330.895 217.12 330.69C216.786 331.118 216.367 331.475 215.864 331.762C215.365 332.044 214.832 332.184 214.264 332.184ZM214.519 330.734C215.093 330.734 215.617 330.596 216.092 330.321C216.567 330.046 216.906 329.715 217.112 329.328V327.605H215.354C214.557 327.605 213.959 327.796 213.561 328.177C213.162 328.557 212.963 328.982 212.963 329.451C212.963 329.867 213.092 330.186 213.35 330.409C213.608 330.626 213.997 330.734 214.519 330.734ZM224.872 332.184C224.099 332.184 223.434 331.994 222.877 331.613C222.326 331.226 221.905 330.69 221.612 330.005C221.319 329.319 221.172 328.519 221.172 327.605V327.421C221.172 326.401 221.319 325.508 221.612 324.74C221.905 323.972 222.329 323.378 222.886 322.956C223.443 322.528 224.111 322.314 224.89 322.314C225.452 322.314 225.948 322.42 226.375 322.631C226.809 322.836 227.178 323.135 227.483 323.527V319.651L226.05 319.405V318.289H227.483H229.214V330.646L230.647 330.892V332H227.711L227.571 330.866C227.26 331.3 226.879 331.628 226.428 331.85C225.983 332.073 225.464 332.184 224.872 332.184ZM225.312 330.778C225.827 330.778 226.261 330.661 226.613 330.427C226.964 330.192 227.254 329.861 227.483 329.433V325.021C227.26 324.623 226.97 324.306 226.613 324.072C226.255 323.838 225.827 323.72 225.329 323.72C224.779 323.72 224.324 323.879 223.967 324.195C223.61 324.506 223.343 324.939 223.167 325.496C222.991 326.047 222.904 326.688 222.904 327.421V327.605C222.904 328.56 223.1 329.328 223.492 329.908C223.885 330.488 224.491 330.778 225.312 330.778ZM231.781 332V330.892L233.213 330.646V323.852L231.781 323.606V322.49H234.945V330.646L236.377 330.892V332H231.781ZM233.125 320.143V318.289H234.945V320.143H233.125Z" fill="#770613"/>
<line x1="104.31" y1="224.5" x2="274.31" y2="224.5" stroke="#770613" stroke-width="3" stroke-linecap="round"/>
<defs>
<filter id="filter0_d_1_3580" x="167" y="0" width="51" height="51" filterUnits="userSpaceOnUse" color-interpolation-filters="sRGB">
<feFlood flood-opacity="0" result="BackgroundImageFix"/>
<feColorMatrix in="SourceAlpha" type="matrix" values="0 0 0 0 0 0 0 0 0 0 0 0 0 0 0 0 0 0 127 0" result="hardAlpha"/>
<feOffset/>
<feGaussianBlur stdDeviation="5"/>
<feComposite in2="hardAlpha" operator="out"/>
<feColorMatrix type="matrix" values="0 0 0 0 1 0 0 0 0 1 0 0 0 0 1 0 0 0 0.3 0"/>
<feBlend mode="normal" in2="BackgroundImageFix" result="effect1_dropShadow_1_3580"/>
<feBlend mode="normal" in="SourceGraphic" in2="effect1_dropShadow_1_3580" result="shape"/>
</filter>
</defs>
</svg>
