<svg width="386" height="399" viewBox="0 0 386 399" fill="none" xmlns="http://www.w3.org/2000/svg">
<path d="M89.7896 102.299L193.212 32L296.634 102.299" stroke="black" stroke-width="1.9418" stroke-linecap="round" stroke-linejoin="round"/>
<path d="M333.701 114.297H52.7261V374.908H333.701V114.297Z" fill="#C49969"/>
<path d="M333.701 114.297H52.7261V127.57H333.701V114.297Z" fill="#A46C38"/>
<path d="M303.875 142.683H82.5093V346.572H303.875V142.683Z" fill="#F5DDA9"/>
<path d="M385.431 379.912H0.954346V394.093H385.431V379.912Z" fill="black"/>
<path d="M385.431 95.2087H0.954346V109.39H385.431V95.2087Z" fill="black"/>
<path d="M351.314 375.02H35.0679V399H351.314V375.02Z" fill="#803225"/>
<path d="M351.314 90.3179H35.0679V114.298H351.314V90.3179Z" fill="#803225"/>
<path d="M314.848 90.3179H71.5356V114.298H314.848V90.3179Z" fill="#49494D"/>
<path d="M314.848 375.02H71.5356V399H314.848V375.02Z" fill="#49494D"/>
<path d="M19.4438 302.649C19.4438 302.649 52.842 238.914 52.842 186.333C52.842 186.333 73.4468 295.973 35.1864 322.821" stroke="black" stroke-width="1.9418" stroke-linecap="round" stroke-linejoin="round"/>
<path d="M357.451 303.24C357.451 303.24 307.513 241.975 332.502 186.398C332.502 186.398 353.107 296.038 314.846 322.886" stroke="black" stroke-width="1.9418" stroke-linecap="round" stroke-linejoin="round"/>
<path d="M52.0493 214.993C65.4547 214.993 76.3219 204.126 76.3219 190.72C76.3219 177.315 65.4547 166.448 52.0493 166.448C38.6439 166.448 27.7769 177.315 27.7769 190.72C27.7769 204.126 38.6439 214.993 52.0493 214.993Z" fill="#803225"/>
<path d="M356.021 190.218C356.029 195.022 354.611 199.72 351.947 203.718C349.283 207.715 345.492 210.832 341.055 212.674C336.618 214.516 331.735 215 327.023 214.065C322.311 213.13 317.982 210.817 314.585 207.42C311.188 204.023 308.876 199.695 307.941 194.983C307.005 190.271 307.489 185.387 309.331 180.95C311.173 176.513 314.29 172.723 318.288 170.059C322.285 167.395 326.983 165.977 331.787 165.984C338.214 165.984 344.379 168.538 348.923 173.082C353.468 177.627 356.021 183.791 356.021 190.218Z" fill="#803225"/>
<path d="M217.499 25.2339C217.506 30.0378 216.088 34.736 213.424 38.7335C210.76 42.731 206.969 45.848 202.533 47.6899C198.096 49.5319 193.212 50.0159 188.5 49.0806C183.788 48.1452 179.46 45.8327 176.063 42.4358C172.666 39.0389 170.353 34.7104 169.418 29.9983C168.483 25.2863 168.967 20.4027 170.809 15.9659C172.651 11.5291 175.768 7.73872 179.765 5.07456C183.763 2.41041 188.461 0.992375 193.265 1.00003C199.692 1.00003 205.856 3.55317 210.401 8.09789C214.945 12.6426 217.499 18.8067 217.499 25.2339Z" fill="#803225"/>
<g filter="url(#filter0_d_1_3604)">
<path d="M208.954 25.4753C208.958 28.543 208.053 31.5432 206.352 34.0959C204.65 36.6487 202.23 38.6391 199.397 39.8154C196.563 40.9916 193.445 41.3007 190.436 40.7034C187.427 40.1061 184.663 38.6293 182.493 36.4601C180.324 34.2909 178.848 31.5268 178.25 28.5178C177.653 25.5088 177.962 22.3902 179.138 19.557C180.314 16.7237 182.305 14.3032 184.858 12.6019C187.41 10.9007 190.411 9.99513 193.478 10C197.583 10 201.519 11.6304 204.421 14.5326C207.323 17.4348 208.954 21.371 208.954 25.4753Z" fill="#A46C38"/>
</g>
<path d="M157.979 197.58L156.539 195.66L164.459 197.22V201H142.679V197.22L152.099 195.72L150.599 197.58V165L152.639 165.12L142.499 170.82L140.099 166.32L151.859 158.64H157.979V197.58ZM183.71 201.66C180.07 201.66 177.09 200.88 174.77 199.32C172.45 197.72 170.75 195.34 169.67 192.18C168.59 189.02 168.05 185.06 168.05 180.3C168.05 175.42 168.61 171.34 169.73 168.06C170.89 164.78 172.67 162.32 175.07 160.68C177.51 159.04 180.65 158.22 184.49 158.22C188.29 158.22 191.31 159 193.55 160.56C195.79 162.08 197.39 164.4 198.35 167.52C199.35 170.6 199.85 174.48 199.85 179.16C199.85 184.08 199.27 188.22 198.11 191.58C196.99 194.94 195.23 197.46 192.83 199.14C190.47 200.82 187.43 201.66 183.71 201.66ZM183.89 196.02C185.93 196.02 187.55 195.44 188.75 194.28C189.95 193.08 190.81 191.26 191.33 188.82C191.89 186.34 192.17 183.26 192.17 179.58C192.21 175.82 191.97 172.8 191.45 170.52C190.93 168.2 190.07 166.52 188.87 165.48C187.71 164.4 186.17 163.86 184.25 163.86C182.17 163.86 180.49 164.46 179.21 165.66C177.97 166.82 177.07 168.6 176.51 171C175.95 173.4 175.67 176.42 175.67 180.06C175.67 183.7 175.93 186.7 176.45 189.06C177.01 191.38 177.89 193.12 179.09 194.28C180.33 195.44 181.93 196.02 183.89 196.02ZM221.913 201.66C218.273 201.66 215.293 200.88 212.973 199.32C210.653 197.72 208.953 195.34 207.873 192.18C206.793 189.02 206.253 185.06 206.253 180.3C206.253 175.42 206.813 171.34 207.933 168.06C209.093 164.78 210.873 162.32 213.273 160.68C215.713 159.04 218.853 158.22 222.693 158.22C226.493 158.22 229.513 159 231.753 160.56C233.993 162.08 235.593 164.4 236.553 167.52C237.553 170.6 238.053 174.48 238.053 179.16C238.053 184.08 237.473 188.22 236.313 191.58C235.193 194.94 233.433 197.46 231.033 199.14C228.673 200.82 225.633 201.66 221.913 201.66ZM222.093 196.02C224.133 196.02 225.753 195.44 226.953 194.28C228.153 193.08 229.013 191.26 229.533 188.82C230.093 186.34 230.373 183.26 230.373 179.58C230.413 175.82 230.173 172.8 229.653 170.52C229.133 168.2 228.273 166.52 227.073 165.48C225.913 164.4 224.373 163.86 222.453 163.86C220.373 163.86 218.693 164.46 217.413 165.66C216.173 166.82 215.273 168.6 214.713 171C214.153 173.4 213.873 176.42 213.873 180.06C213.873 183.7 214.133 186.7 214.653 189.06C215.213 191.38 216.093 193.12 217.293 194.28C218.533 195.44 220.133 196.02 222.093 196.02Z" fill="#770613"/>
<path d="M123.442 271.184C122.733 271.184 122.088 271.044 121.508 270.762C120.934 270.481 120.471 270.056 120.119 269.488C119.774 268.92 119.583 268.208 119.548 267.352L119.566 267.3H121.227C121.25 268.161 121.447 268.794 121.816 269.198C122.191 269.602 122.724 269.804 123.415 269.804C123.902 269.804 124.3 269.702 124.611 269.497C124.921 269.286 125.15 268.999 125.296 268.635C125.448 268.266 125.525 267.844 125.525 267.37V259.565L123.82 259.337V258.203H128.689V259.319L127.256 259.565V267.37C127.256 268.132 127.11 268.8 126.817 269.374C126.53 269.948 126.102 270.393 125.533 270.71C124.971 271.026 124.274 271.184 123.442 271.184ZM134.287 271.184C133.408 271.184 132.644 270.985 131.993 270.587C131.343 270.182 130.839 269.623 130.482 268.908C130.13 268.193 129.954 267.367 129.954 266.429V266.043C129.954 265.14 130.139 264.335 130.508 263.626C130.883 262.911 131.378 262.348 131.993 261.938C132.615 261.522 133.291 261.314 134.024 261.314C134.879 261.314 135.594 261.49 136.168 261.842C136.748 262.193 137.185 262.688 137.478 263.327C137.771 263.96 137.917 264.707 137.917 265.568V266.649H131.747L131.721 266.693C131.733 267.302 131.838 267.844 132.037 268.319C132.242 268.788 132.535 269.157 132.916 269.427C133.297 269.696 133.754 269.831 134.287 269.831C134.873 269.831 135.386 269.749 135.825 269.585C136.271 269.415 136.655 269.183 136.977 268.89L137.654 270.015C137.314 270.344 136.863 270.622 136.3 270.85C135.743 271.073 135.073 271.184 134.287 271.184ZM131.8 265.296H136.186V265.067C136.186 264.61 136.104 264.203 135.94 263.845C135.781 263.482 135.541 263.198 135.219 262.993C134.903 262.782 134.504 262.677 134.024 262.677C133.637 262.677 133.285 262.791 132.969 263.019C132.653 263.242 132.392 263.547 132.187 263.933C131.982 264.32 131.847 264.76 131.782 265.252L131.8 265.296ZM139.271 271V269.892L140.703 269.646V262.852L139.271 262.606V261.49H142.25L142.373 262.905C142.69 262.401 143.085 262.011 143.56 261.736C144.04 261.455 144.585 261.314 145.195 261.314C146.22 261.314 147.014 261.616 147.576 262.219C148.139 262.817 148.42 263.743 148.42 264.997V269.646L149.853 269.892V271H145.256V269.892L146.689 269.646V265.032C146.689 264.194 146.522 263.599 146.188 263.248C145.86 262.896 145.356 262.72 144.676 262.72C144.178 262.72 143.736 262.841 143.349 263.081C142.968 263.321 142.663 263.649 142.435 264.065V269.646L143.867 269.892V271H139.271ZM154.933 271.184C154.294 271.184 153.697 271.12 153.14 270.991C152.583 270.862 151.991 270.663 151.365 270.393L151.347 268.135H152.656L152.982 269.497C153.31 269.632 153.626 269.731 153.931 269.796C154.241 269.854 154.575 269.884 154.933 269.884C155.636 269.884 156.14 269.749 156.445 269.479C156.749 269.21 156.902 268.876 156.902 268.477C156.902 268.102 156.746 267.786 156.436 267.528C156.131 267.264 155.574 267.042 154.766 266.86C153.617 266.596 152.771 266.245 152.226 265.805C151.687 265.36 151.417 264.768 151.417 264.03C151.417 263.514 151.567 263.054 151.865 262.65C152.164 262.24 152.58 261.915 153.114 261.675C153.647 261.434 154.268 261.314 154.977 261.314C155.698 261.314 156.313 261.396 156.823 261.56C157.338 261.724 157.786 261.944 158.167 262.219L158.255 264.39H156.954L156.673 263.125C156.468 262.972 156.225 262.855 155.944 262.773C155.662 262.691 155.34 262.65 154.977 262.65C154.438 262.65 153.998 262.776 153.658 263.028C153.324 263.28 153.157 263.596 153.157 263.977C153.157 264.2 153.204 264.393 153.298 264.557C153.398 264.721 153.585 264.871 153.861 265.006C154.136 265.135 154.54 265.263 155.073 265.392C156.398 265.703 157.321 266.098 157.842 266.579C158.369 267.059 158.633 267.651 158.633 268.354C158.633 269.157 158.334 269.831 157.737 270.376C157.145 270.915 156.21 271.184 154.933 271.184ZM159.846 271V269.892L161.279 269.646V258.651L159.846 258.405V257.289H163.01V262.756C163.338 262.299 163.74 261.944 164.214 261.692C164.689 261.44 165.216 261.314 165.796 261.314C166.816 261.314 167.607 261.619 168.169 262.228C168.732 262.838 169.013 263.775 169.013 265.041V269.646L170.446 269.892V271H165.849V269.892L167.281 269.646V265.023C167.281 264.238 167.112 263.658 166.772 263.283C166.438 262.908 165.937 262.72 165.269 262.72C164.794 262.72 164.361 262.835 163.968 263.063C163.581 263.286 163.262 263.591 163.01 263.977V269.646L164.443 269.892V271H159.846ZM175.824 271.184C174.946 271.184 174.181 270.985 173.531 270.587C172.88 270.182 172.376 269.623 172.019 268.908C171.667 268.193 171.491 267.367 171.491 266.429V266.043C171.491 265.14 171.676 264.335 172.045 263.626C172.42 262.911 172.915 262.348 173.531 261.938C174.152 261.522 174.828 261.314 175.561 261.314C176.416 261.314 177.131 261.49 177.705 261.842C178.285 262.193 178.722 262.688 179.015 263.327C179.308 263.96 179.454 264.707 179.454 265.568V266.649H173.284L173.258 266.693C173.27 267.302 173.375 267.844 173.574 268.319C173.78 268.788 174.073 269.157 174.453 269.427C174.834 269.696 175.291 269.831 175.824 269.831C176.41 269.831 176.923 269.749 177.363 269.585C177.808 269.415 178.192 269.183 178.514 268.89L179.191 270.015C178.851 270.344 178.4 270.622 177.837 270.85C177.281 271.073 176.61 271.184 175.824 271.184ZM173.337 265.296H177.723V265.067C177.723 264.61 177.641 264.203 177.477 263.845C177.319 263.482 177.078 263.198 176.756 262.993C176.44 262.782 176.041 262.677 175.561 262.677C175.174 262.677 174.823 262.791 174.506 263.019C174.19 263.242 173.929 263.547 173.724 263.933C173.519 264.32 173.384 264.76 173.32 265.252L173.337 265.296ZM180.808 271V269.892L182.24 269.646V262.852L180.808 262.606V261.49H183.787L183.91 262.905C184.227 262.401 184.622 262.011 185.097 261.736C185.577 261.455 186.122 261.314 186.732 261.314C187.757 261.314 188.551 261.616 189.114 262.219C189.676 262.817 189.957 263.743 189.957 264.997V269.646L191.39 269.892V271H186.793V269.892L188.226 269.646V265.032C188.226 264.194 188.059 263.599 187.725 263.248C187.397 262.896 186.893 262.72 186.213 262.72C185.715 262.72 185.273 262.841 184.886 263.081C184.505 263.321 184.2 263.649 183.972 264.065V269.646L185.405 269.892V271H180.808ZM201.401 271.184C200.522 271.184 199.763 270.979 199.124 270.569C198.491 270.153 198.002 269.582 197.656 268.855C197.311 268.123 197.138 267.288 197.138 266.35V266.157C197.138 265.219 197.311 264.387 197.656 263.661C198.002 262.928 198.491 262.354 199.124 261.938C199.763 261.522 200.516 261.314 201.383 261.314C202.262 261.314 203.018 261.522 203.651 261.938C204.289 262.354 204.781 262.926 205.127 263.652C205.473 264.379 205.646 265.214 205.646 266.157V266.35C205.646 267.294 205.473 268.132 205.127 268.864C204.781 269.591 204.292 270.159 203.659 270.569C203.027 270.979 202.274 271.184 201.401 271.184ZM201.401 269.831C201.951 269.831 202.411 269.681 202.781 269.383C203.156 269.078 203.437 268.665 203.624 268.143C203.818 267.616 203.914 267.018 203.914 266.35V266.157C203.914 265.489 203.818 264.894 203.624 264.373C203.437 263.845 203.156 263.432 202.781 263.134C202.406 262.829 201.94 262.677 201.383 262.677C200.832 262.677 200.369 262.829 199.994 263.134C199.619 263.432 199.338 263.845 199.151 264.373C198.963 264.894 198.869 265.489 198.869 266.157V266.35C198.869 267.018 198.963 267.616 199.151 268.143C199.338 268.665 199.619 269.078 199.994 269.383C200.375 269.681 200.844 269.831 201.401 269.831ZM207.615 261.727V259.082V257.289H209.003V259.249L208.467 261.727H207.615ZM213.995 271.184C213.357 271.184 212.759 271.12 212.202 270.991C211.646 270.862 211.054 270.663 210.427 270.393L210.409 268.135H211.719L212.044 269.497C212.372 269.632 212.689 269.731 212.993 269.796C213.304 269.854 213.638 269.884 213.995 269.884C214.698 269.884 215.202 269.749 215.507 269.479C215.812 269.21 215.964 268.876 215.964 268.477C215.964 268.102 215.809 267.786 215.498 267.528C215.194 267.264 214.637 267.042 213.828 266.86C212.68 266.596 211.833 266.245 211.288 265.805C210.749 265.36 210.48 264.768 210.48 264.03C210.48 263.514 210.629 263.054 210.928 262.65C211.227 262.24 211.643 261.915 212.176 261.675C212.709 261.434 213.33 261.314 214.039 261.314C214.76 261.314 215.375 261.396 215.885 261.56C216.401 261.724 216.849 261.944 217.23 262.219L217.318 264.39H216.017L215.736 263.125C215.531 262.972 215.287 262.855 215.006 262.773C214.725 262.691 214.403 262.65 214.039 262.65C213.5 262.65 213.061 262.776 212.721 263.028C212.387 263.28 212.22 263.596 212.22 263.977C212.22 264.2 212.267 264.393 212.361 264.557C212.46 264.721 212.648 264.871 212.923 265.006C213.198 265.135 213.603 265.263 214.136 265.392C215.46 265.703 216.383 266.098 216.905 266.579C217.432 267.059 217.696 267.651 217.696 268.354C217.696 269.157 217.397 269.831 216.799 270.376C216.207 270.915 215.273 271.184 213.995 271.184ZM219.067 271V269.892L220.499 269.646V262.852L219.067 262.606V261.49H222.231V269.646L223.663 269.892V271H219.067ZM220.411 259.143V257.289H222.231V259.143H220.411ZM224.859 271V269.892L226.291 269.646V262.852L224.859 262.606V261.49H227.847L227.961 262.729C228.266 262.278 228.658 261.929 229.139 261.683C229.619 261.437 230.176 261.314 230.809 261.314C231.442 261.314 231.984 261.461 232.435 261.754C232.892 262.047 233.235 262.486 233.463 263.072C233.762 262.533 234.157 262.105 234.65 261.789C235.142 261.472 235.716 261.314 236.372 261.314C237.345 261.314 238.113 261.648 238.675 262.316C239.238 262.978 239.519 263.977 239.519 265.313V269.646L240.951 269.892V271H236.346V269.892L237.779 269.646V265.296C237.779 264.358 237.617 263.696 237.295 263.309C236.973 262.917 236.495 262.72 235.863 262.72C235.259 262.72 234.773 262.934 234.404 263.362C234.04 263.784 233.829 264.317 233.771 264.962V269.646L235.203 269.892V271H230.607V269.892L232.039 269.646V265.296C232.039 264.405 231.872 263.755 231.538 263.344C231.21 262.928 230.733 262.72 230.106 262.72C229.578 262.72 229.145 262.829 228.805 263.046C228.465 263.262 228.204 263.567 228.023 263.96V269.646L229.455 269.892V271H224.859ZM242.156 271V269.892L243.588 269.646V258.651L242.156 258.405V257.289H245.32V269.646L246.752 269.892V271H242.156ZM247.93 271V269.892L249.363 269.646V262.852L247.93 262.606V261.49H251.094V269.646L252.527 269.892V271H247.93ZM249.275 259.143V257.289H251.094V259.143H249.275ZM257.897 274.841C257.44 274.841 256.945 274.776 256.411 274.647C255.878 274.524 255.409 274.354 255.005 274.137L255.453 272.793C255.776 272.963 256.156 273.103 256.596 273.215C257.035 273.326 257.463 273.382 257.879 273.382C258.653 273.382 259.218 273.165 259.575 272.731C259.939 272.298 260.12 271.679 260.12 270.877V269.971C259.81 270.37 259.438 270.672 259.004 270.877C258.571 271.082 258.073 271.184 257.51 271.184C256.737 271.184 256.069 270.994 255.506 270.613C254.944 270.226 254.51 269.69 254.205 269.005C253.906 268.313 253.757 267.513 253.757 266.605V266.421C253.757 265.401 253.906 264.508 254.205 263.74C254.51 262.972 254.944 262.378 255.506 261.956C256.069 261.528 256.742 261.314 257.528 261.314C258.125 261.314 258.65 261.431 259.101 261.666C259.552 261.9 259.93 262.24 260.235 262.685L260.393 261.49H261.852V270.877C261.852 271.697 261.697 272.403 261.386 272.995C261.081 273.587 260.633 274.041 260.041 274.357C259.455 274.679 258.74 274.841 257.897 274.841ZM257.941 269.778C258.462 269.778 258.899 269.661 259.25 269.427C259.602 269.186 259.892 268.849 260.12 268.416V264.039C259.898 263.635 259.608 263.315 259.25 263.081C258.893 262.841 258.462 262.72 257.958 262.72C257.407 262.72 256.948 262.879 256.578 263.195C256.215 263.511 255.943 263.948 255.761 264.505C255.579 265.055 255.489 265.694 255.489 266.421V266.605C255.489 267.56 255.691 268.328 256.095 268.908C256.499 269.488 257.115 269.778 257.941 269.778ZM261.588 262.905L260.911 261.49H263.03V262.597L261.588 262.905ZM263.838 271V269.892L265.271 269.646V262.852L263.838 262.606V261.49H267.002V269.646L268.435 269.892V271H263.838ZM265.183 259.143V257.289H267.002V259.143H265.183ZM142.4 291V289.892L144.377 289.646V280.057L142.365 280.093V279.011L146.109 278.203V289.646L148.077 289.892V291H142.4ZM153.896 291.184C152.642 291.184 151.649 290.748 150.916 289.875C150.184 289.002 149.818 287.751 149.818 286.122V283.09C149.818 281.461 150.181 280.21 150.907 279.337C151.634 278.458 152.624 278.018 153.878 278.018C155.138 278.018 156.134 278.458 156.866 279.337C157.599 280.21 157.965 281.461 157.965 283.09V286.122C157.965 287.757 157.602 289.01 156.875 289.884C156.149 290.751 155.156 291.184 153.896 291.184ZM153.896 289.831C154.663 289.831 155.243 289.55 155.636 288.987C156.034 288.425 156.234 287.587 156.234 286.473V282.72C156.234 281.613 156.031 280.781 155.627 280.224C155.229 279.662 154.646 279.381 153.878 279.381C153.122 279.381 152.545 279.662 152.147 280.224C151.748 280.781 151.549 281.613 151.549 282.72V286.473C151.549 287.581 151.751 288.419 152.156 288.987C152.56 289.55 153.14 289.831 153.896 289.831ZM164.161 291.184C162.907 291.184 161.914 290.748 161.182 289.875C160.449 289.002 160.083 287.751 160.083 286.122V283.09C160.083 281.461 160.447 280.21 161.173 279.337C161.9 278.458 162.89 278.018 164.144 278.018C165.404 278.018 166.4 278.458 167.132 279.337C167.865 280.21 168.231 281.461 168.231 283.09V286.122C168.231 287.757 167.867 289.01 167.141 289.884C166.414 290.751 165.421 291.184 164.161 291.184ZM164.161 289.831C164.929 289.831 165.509 289.55 165.902 288.987C166.3 288.425 166.499 287.587 166.499 286.473V282.72C166.499 281.613 166.297 280.781 165.893 280.224C165.494 279.662 164.911 279.381 164.144 279.381C163.388 279.381 162.811 279.662 162.412 280.224C162.014 280.781 161.815 281.613 161.815 282.72V286.473C161.815 287.581 162.017 288.419 162.421 288.987C162.825 289.55 163.406 289.831 164.161 289.831ZM176.484 294.841C176.349 294.841 176.173 294.823 175.956 294.788C175.74 294.759 175.573 294.729 175.455 294.7L175.631 293.338C175.731 293.349 175.868 293.358 176.044 293.364C176.22 293.376 176.34 293.382 176.405 293.382C176.774 293.382 177.073 293.241 177.301 292.96C177.535 292.678 177.752 292.295 177.951 291.808L178.365 290.806L174.998 282.747L173.979 282.606V281.49H177.969V282.606L176.818 282.782L178.672 287.537L179.12 288.776H179.173L181.37 282.782L180.157 282.606V281.49H184.069V282.606L183.084 282.747L179.34 292.459C179.164 292.916 178.95 293.323 178.698 293.68C178.452 294.044 178.148 294.328 177.784 294.533C177.427 294.738 176.993 294.841 176.484 294.841ZM184.833 291V289.892L186.266 289.646V282.852L184.833 282.606V281.49H187.997V289.646L189.43 289.892V291H184.833ZM186.178 279.143V277.289H187.997V279.143H186.178ZM190.537 291V289.892L191.97 289.646V278.651L190.537 278.405V277.289H193.701V289.646L195.134 289.892V291H190.537ZM200.46 294.841C200.003 294.841 199.508 294.776 198.975 294.647C198.442 294.524 197.973 294.354 197.569 294.137L198.017 292.793C198.339 292.963 198.72 293.103 199.159 293.215C199.599 293.326 200.027 293.382 200.443 293.382C201.216 293.382 201.781 293.165 202.139 292.731C202.502 292.298 202.684 291.679 202.684 290.877V289.971C202.373 290.37 202.001 290.672 201.568 290.877C201.134 291.082 200.636 291.184 200.073 291.184C199.3 291.184 198.632 290.994 198.07 290.613C197.507 290.226 197.073 289.69 196.769 289.005C196.47 288.313 196.321 287.513 196.321 286.605V286.421C196.321 285.401 196.47 284.508 196.769 283.74C197.073 282.972 197.507 282.378 198.07 281.956C198.632 281.528 199.306 281.314 200.091 281.314C200.689 281.314 201.213 281.431 201.664 281.666C202.115 281.9 202.493 282.24 202.798 282.685L202.956 281.49H204.415V290.877C204.415 291.697 204.26 292.403 203.949 292.995C203.645 293.587 203.197 294.041 202.605 294.357C202.019 294.679 201.304 294.841 200.46 294.841ZM200.504 289.778C201.026 289.778 201.462 289.661 201.814 289.427C202.165 289.186 202.455 288.849 202.684 288.416V284.039C202.461 283.635 202.171 283.315 201.814 283.081C201.456 282.841 201.026 282.72 200.522 282.72C199.971 282.72 199.511 282.879 199.142 283.195C198.779 283.511 198.506 283.948 198.324 284.505C198.143 285.055 198.052 285.694 198.052 286.421V286.605C198.052 287.56 198.254 288.328 198.658 288.908C199.063 289.488 199.678 289.778 200.504 289.778ZM204.152 282.905L203.475 281.49H205.593V282.597L204.152 282.905ZM209.539 291.184C208.549 291.184 207.796 290.944 207.281 290.464C206.765 289.977 206.507 289.295 206.507 288.416C206.507 287.812 206.671 287.288 206.999 286.843C207.333 286.391 207.814 286.043 208.441 285.797C209.068 285.545 209.818 285.419 210.691 285.419H212.387V284.487C212.387 283.913 212.211 283.468 211.86 283.151C211.514 282.835 211.025 282.677 210.392 282.677C209.993 282.677 209.648 282.726 209.355 282.826C209.062 282.92 208.795 283.052 208.555 283.221L208.37 284.549H207.034V282.369C207.462 282.023 207.96 281.762 208.529 281.587C209.097 281.405 209.727 281.314 210.418 281.314C211.573 281.314 212.478 281.59 213.134 282.14C213.79 282.691 214.118 283.479 214.118 284.505V289.084C214.118 289.207 214.118 289.327 214.118 289.444C214.124 289.561 214.133 289.678 214.145 289.796L215.068 289.892V291H212.58C212.528 290.742 212.487 290.51 212.457 290.305C212.428 290.1 212.407 289.895 212.396 289.69C212.062 290.118 211.643 290.475 211.139 290.762C210.641 291.044 210.108 291.184 209.539 291.184ZM209.794 289.734C210.368 289.734 210.893 289.596 211.367 289.321C211.842 289.046 212.182 288.715 212.387 288.328V286.605H210.629C209.832 286.605 209.235 286.796 208.836 287.177C208.438 287.557 208.239 287.982 208.239 288.451C208.239 288.867 208.367 289.186 208.625 289.409C208.883 289.626 209.273 289.734 209.794 289.734ZM220.71 291.184C219.849 291.184 219.099 290.985 218.46 290.587C217.822 290.182 217.326 289.623 216.975 288.908C216.623 288.193 216.448 287.367 216.448 286.429V286.06C216.448 285.158 216.617 284.349 216.957 283.635C217.297 282.92 217.786 282.354 218.425 281.938C219.064 281.522 219.825 281.314 220.71 281.314C221.478 281.314 222.149 281.44 222.723 281.692C223.303 281.944 223.789 282.29 224.182 282.729L224.226 285.014H222.872L222.573 283.353C222.374 283.148 222.125 282.984 221.826 282.861C221.528 282.738 221.176 282.677 220.772 282.677C220.256 282.677 219.802 282.829 219.409 283.134C219.023 283.438 218.721 283.845 218.504 284.355C218.287 284.865 218.179 285.433 218.179 286.06V286.429C218.179 287.121 218.279 287.721 218.478 288.231C218.683 288.741 218.973 289.136 219.348 289.418C219.729 289.693 220.18 289.831 220.701 289.831C221.287 289.831 221.774 289.67 222.16 289.347C222.547 289.025 222.784 288.583 222.872 288.02H224.428L224.446 288.073C224.416 288.618 224.255 289.128 223.962 289.602C223.669 290.077 223.25 290.461 222.705 290.754C222.166 291.041 221.501 291.184 220.71 291.184ZM225.579 291V289.892L227.012 289.646V278.651L225.579 278.405V277.289H228.743V282.756C229.072 282.299 229.473 281.944 229.948 281.692C230.422 281.44 230.949 281.314 231.53 281.314C232.549 281.314 233.34 281.619 233.903 282.228C234.465 282.838 234.746 283.775 234.746 285.041V289.646L236.179 289.892V291H231.582V289.892L233.015 289.646V285.023C233.015 284.238 232.845 283.658 232.505 283.283C232.171 282.908 231.67 282.72 231.002 282.72C230.528 282.72 230.094 282.835 229.701 283.063C229.315 283.286 228.995 283.591 228.743 283.977V289.646L230.176 289.892V291H225.579ZM240.442 291.184C239.451 291.184 238.698 290.944 238.183 290.464C237.667 289.977 237.409 289.295 237.409 288.416C237.409 287.812 237.573 287.288 237.902 286.843C238.236 286.391 238.716 286.043 239.343 285.797C239.97 285.545 240.72 285.419 241.593 285.419H243.289V284.487C243.289 283.913 243.114 283.468 242.762 283.151C242.416 282.835 241.927 282.677 241.294 282.677C240.896 282.677 240.55 282.726 240.257 282.826C239.964 282.92 239.698 283.052 239.457 283.221L239.273 284.549H237.937V282.369C238.365 282.023 238.863 281.762 239.431 281.587C239.999 281.405 240.629 281.314 241.321 281.314C242.475 281.314 243.38 281.59 244.036 282.14C244.693 282.691 245.021 283.479 245.021 284.505V289.084C245.021 289.207 245.021 289.327 245.021 289.444C245.027 289.561 245.035 289.678 245.047 289.796L245.97 289.892V291H243.483C243.43 290.742 243.389 290.51 243.36 290.305C243.33 290.1 243.31 289.895 243.298 289.69C242.964 290.118 242.545 290.475 242.041 290.762C241.543 291.044 241.01 291.184 240.442 291.184ZM240.697 289.734C241.271 289.734 241.795 289.596 242.27 289.321C242.744 289.046 243.084 288.715 243.289 288.328V286.605H241.531C240.735 286.605 240.137 286.796 239.739 287.177C239.34 287.557 239.141 287.982 239.141 288.451C239.141 288.867 239.27 289.186 239.528 289.409C239.785 289.626 240.175 289.734 240.697 289.734ZM149.457 312.184C148.426 312.184 147.62 311.853 147.04 311.191C146.46 310.529 146.17 309.498 146.17 308.097V303.852L145.08 303.606V302.49H146.17H147.902V308.115C147.902 309.129 148.051 309.826 148.35 310.207C148.649 310.588 149.115 310.778 149.747 310.778C150.363 310.778 150.869 310.655 151.268 310.409C151.672 310.157 151.977 309.802 152.182 309.345V303.852L150.907 303.606V302.49H152.182H153.913V310.646L155.003 310.892V312H152.358L152.243 310.594C151.945 311.103 151.558 311.496 151.083 311.771C150.615 312.047 150.073 312.184 149.457 312.184ZM156.225 312V310.892L157.657 310.646V303.852L156.225 303.606V302.49H159.213L159.327 303.729C159.632 303.278 160.025 302.929 160.505 302.683C160.986 302.437 161.542 302.314 162.175 302.314C162.808 302.314 163.35 302.461 163.801 302.754C164.258 303.047 164.601 303.486 164.829 304.072C165.128 303.533 165.524 303.105 166.016 302.789C166.508 302.472 167.082 302.314 167.739 302.314C168.711 302.314 169.479 302.648 170.041 303.316C170.604 303.978 170.885 304.977 170.885 306.313V310.646L172.318 310.892V312H167.712V310.892L169.145 310.646V306.296C169.145 305.358 168.984 304.696 168.661 304.309C168.339 303.917 167.862 303.72 167.229 303.72C166.625 303.72 166.139 303.934 165.77 304.362C165.406 304.784 165.196 305.317 165.137 305.962V310.646L166.57 310.892V312H161.973V310.892L163.406 310.646V306.296C163.406 305.405 163.239 304.755 162.905 304.344C162.576 303.928 162.099 303.72 161.472 303.72C160.945 303.72 160.511 303.829 160.171 304.046C159.831 304.262 159.571 304.567 159.389 304.96V310.646L160.822 310.892V312H156.225ZM173.592 312V310.892L175.025 310.646V303.852L173.592 303.606V302.49H176.572L176.721 303.703L176.739 303.87C177.008 303.384 177.339 303.003 177.732 302.727C178.13 302.452 178.584 302.314 179.094 302.314C179.276 302.314 179.46 302.332 179.648 302.367C179.841 302.396 179.979 302.426 180.061 302.455L179.832 304.063L178.628 303.993C178.171 303.964 177.787 304.069 177.477 304.309C177.166 304.544 176.926 304.86 176.756 305.259V310.646L178.189 310.892V312H173.592ZM185.51 312V310.892L186.943 310.646V299.651L185.51 299.405V298.289H188.674V310.646L190.107 310.892V312H185.51ZM191.618 312V310.892L192.585 310.778L192.559 310.743L189.808 307.192L190.704 305.812L194.545 310.681L195.916 310.892V312H191.618ZM188.551 309.249L187.909 307.886L192.04 303.773L192.084 303.72L191.065 303.606V302.49H195.16V303.606L193.939 303.835L188.551 309.249ZM200.689 312.184C199.81 312.184 199.051 311.979 198.412 311.569C197.78 311.153 197.29 310.582 196.945 309.855C196.599 309.123 196.426 308.288 196.426 307.35V307.157C196.426 306.219 196.599 305.387 196.945 304.661C197.29 303.928 197.78 303.354 198.412 302.938C199.051 302.522 199.804 302.314 200.671 302.314C201.55 302.314 202.306 302.522 202.939 302.938C203.577 303.354 204.07 303.926 204.415 304.652C204.761 305.379 204.934 306.214 204.934 307.157V307.35C204.934 308.294 204.761 309.132 204.415 309.864C204.07 310.591 203.58 311.159 202.948 311.569C202.315 311.979 201.562 312.184 200.689 312.184ZM200.689 310.831C201.24 310.831 201.699 310.681 202.069 310.383C202.444 310.078 202.725 309.665 202.912 309.143C203.106 308.616 203.202 308.018 203.202 307.35V307.157C203.202 306.489 203.106 305.894 202.912 305.373C202.725 304.845 202.444 304.432 202.069 304.134C201.694 303.829 201.228 303.677 200.671 303.677C200.12 303.677 199.657 303.829 199.282 304.134C198.907 304.432 198.626 304.845 198.439 305.373C198.251 305.894 198.157 306.489 198.157 307.157V307.35C198.157 308.018 198.251 308.616 198.439 309.143C198.626 309.665 198.907 310.078 199.282 310.383C199.663 310.681 200.132 310.831 200.689 310.831ZM206.903 302.727V300.082V298.289H208.291V300.249L207.755 302.727H206.903ZM210.119 312V310.892L211.552 310.646V303.852L210.119 303.606V302.49H213.099L213.248 303.703L213.266 303.87C213.535 303.384 213.866 303.003 214.259 302.727C214.657 302.452 215.112 302.314 215.621 302.314C215.803 302.314 215.988 302.332 216.175 302.367C216.368 302.396 216.506 302.426 216.588 302.455L216.36 304.063L215.156 303.993C214.698 303.964 214.315 304.069 214.004 304.309C213.694 304.544 213.453 304.86 213.283 305.259V310.646L214.716 310.892V312H210.119ZM220.719 312.184C219.729 312.184 218.976 311.944 218.46 311.464C217.945 310.977 217.687 310.295 217.687 309.416C217.687 308.812 217.851 308.288 218.179 307.843C218.513 307.391 218.993 307.043 219.62 306.797C220.247 306.545 220.997 306.419 221.87 306.419H223.567V305.487C223.567 304.913 223.391 304.468 223.039 304.151C222.694 303.835 222.204 303.677 221.572 303.677C221.173 303.677 220.827 303.726 220.534 303.826C220.241 303.92 219.975 304.052 219.735 304.221L219.55 305.549H218.214V303.369C218.642 303.023 219.14 302.762 219.708 302.587C220.277 302.405 220.906 302.314 221.598 302.314C222.752 302.314 223.657 302.59 224.314 303.14C224.97 303.691 225.298 304.479 225.298 305.505V310.084C225.298 310.207 225.298 310.327 225.298 310.444C225.304 310.561 225.313 310.678 225.324 310.796L226.247 310.892V312H223.76C223.707 311.742 223.666 311.51 223.637 311.305C223.608 311.1 223.587 310.895 223.575 310.69C223.241 311.118 222.823 311.475 222.319 311.762C221.821 312.044 221.287 312.184 220.719 312.184ZM220.974 310.734C221.548 310.734 222.073 310.596 222.547 310.321C223.022 310.046 223.362 309.715 223.567 309.328V307.605H221.809C221.012 307.605 220.414 307.796 220.016 308.177C219.617 308.557 219.418 308.982 219.418 309.451C219.418 309.867 219.547 310.186 219.805 310.409C220.063 310.626 220.452 310.734 220.974 310.734ZM231.327 312.184C230.554 312.184 229.889 311.994 229.332 311.613C228.781 311.226 228.36 310.69 228.067 310.005C227.774 309.319 227.627 308.519 227.627 307.605V307.421C227.627 306.401 227.774 305.508 228.067 304.74C228.36 303.972 228.784 303.378 229.341 302.956C229.898 302.528 230.566 302.314 231.345 302.314C231.907 302.314 232.403 302.42 232.83 302.631C233.264 302.836 233.633 303.135 233.938 303.527V299.651L232.505 299.405V298.289H233.938H235.669V310.646L237.102 310.892V312H234.166L234.026 310.866C233.715 311.3 233.334 311.628 232.883 311.85C232.438 312.073 231.919 312.184 231.327 312.184ZM231.767 310.778C232.282 310.778 232.716 310.661 233.068 310.427C233.419 310.192 233.709 309.861 233.938 309.433V305.021C233.715 304.623 233.425 304.306 233.068 304.072C232.71 303.838 232.282 303.72 231.784 303.72C231.234 303.72 230.78 303.879 230.422 304.195C230.065 304.506 229.798 304.939 229.622 305.496C229.447 306.047 229.359 306.688 229.359 307.421V307.605C229.359 308.56 229.555 309.328 229.948 309.908C230.34 310.488 230.947 310.778 231.767 310.778ZM238.236 312V310.892L239.668 310.646V303.852L238.236 303.606V302.49H241.4V310.646L242.832 310.892V312H238.236ZM239.58 300.143V298.289H241.4V300.143H239.58Z" fill="#770613"/>
<line x1="105.264" y1="224.5" x2="275.264" y2="224.5" stroke="#770613" stroke-width="3" stroke-linecap="round"/>
<defs>
<filter id="filter0_d_1_3604" x="167.954" y="0" width="51" height="51" filterUnits="userSpaceOnUse" color-interpolation-filters="sRGB">
<feFlood flood-opacity="0" result="BackgroundImageFix"/>
<feColorMatrix in="SourceAlpha" type="matrix" values="0 0 0 0 0 0 0 0 0 0 0 0 0 0 0 0 0 0 127 0" result="hardAlpha"/>
<feOffset/>
<feGaussianBlur stdDeviation="5"/>
<feComposite in2="hardAlpha" operator="out"/>
<feColorMatrix type="matrix" values="0 0 0 0 1 0 0 0 0 1 0 0 0 0 1 0 0 0 0.3 0"/>
<feBlend mode="normal" in2="BackgroundImageFix" result="effect1_dropShadow_1_3604"/>
<feBlend mode="normal" in="SourceGraphic" in2="effect1_dropShadow_1_3604" result="shape"/>
</filter>
</defs>
</svg>
