<svg width="385" height="399" viewBox="0 0 385 399" fill="none" xmlns="http://www.w3.org/2000/svg">
<path d="M89.312 102.299L192.734 32L296.157 102.299" stroke="black" stroke-width="1.9418" stroke-linecap="round" stroke-linejoin="round"/>
<path d="M333.224 114.297H52.249V374.908H333.224V114.297Z" fill="#C49969"/>
<path d="M333.224 114.297H52.249V127.57H333.224V114.297Z" fill="#A46C38"/>
<path d="M303.398 142.683H82.0322V346.572H303.398V142.683Z" fill="#F5DDA9"/>
<path d="M384.954 379.912H0.477295V394.093H384.954V379.912Z" fill="black"/>
<path d="M384.954 95.209H0.477295V109.39H384.954V95.209Z" fill="black"/>
<path d="M350.837 375.02H34.5908V399H350.837V375.02Z" fill="#803225"/>
<path d="M350.837 90.3179H34.5908V114.298H350.837V90.3179Z" fill="#803225"/>
<path d="M314.37 90.3179H71.0586V114.298H314.37V90.3179Z" fill="#49494D"/>
<path d="M314.37 375.02H71.0586V399H314.37V375.02Z" fill="#49494D"/>
<path d="M18.9668 302.649C18.9668 302.649 52.3649 238.914 52.3649 186.333C52.3649 186.333 72.9697 295.973 34.7094 322.821" stroke="black" stroke-width="1.9418" stroke-linecap="round" stroke-linejoin="round"/>
<path d="M356.974 303.24C356.974 303.24 307.036 241.975 332.025 186.398C332.025 186.398 352.63 296.038 314.37 322.886" stroke="black" stroke-width="1.9418" stroke-linecap="round" stroke-linejoin="round"/>
<path d="M51.5717 214.993C64.9771 214.993 75.8444 204.125 75.8444 190.72C75.8444 177.315 64.9771 166.448 51.5717 166.448C38.1663 166.448 27.2993 177.315 27.2993 190.72C27.2993 204.125 38.1663 214.993 51.5717 214.993Z" fill="#803225"/>
<path d="M355.544 190.218C355.551 195.022 354.133 199.72 351.469 203.718C348.805 207.715 345.014 210.832 340.578 212.674C336.141 214.516 331.257 215 326.545 214.065C321.833 213.13 317.505 210.817 314.108 207.42C310.711 204.023 308.398 199.695 307.463 194.983C306.528 190.271 307.012 185.387 308.854 180.95C310.696 176.513 313.812 172.723 317.81 170.059C321.808 167.395 326.506 165.977 331.31 165.984C337.737 165.984 343.901 168.538 348.446 173.082C352.99 177.627 355.544 183.791 355.544 190.218Z" fill="#803225"/>
<path d="M217.022 25.2339C217.029 30.0378 215.611 34.736 212.947 38.7335C210.283 42.731 206.492 45.848 202.056 47.6899C197.619 49.5319 192.735 50.0159 188.023 49.0806C183.311 48.1452 178.983 45.8327 175.586 42.4358C172.189 39.0389 169.876 34.7104 168.941 29.9983C168.006 25.2863 168.49 20.4027 170.332 15.9659C172.174 11.5291 175.291 7.73872 179.288 5.07456C183.286 2.41041 187.984 0.992375 192.788 1.00003C199.215 1.00003 205.379 3.55317 209.924 8.09789C214.468 12.6426 217.022 18.8067 217.022 25.2339Z" fill="#803225"/>
<g filter="url(#filter0_d_1_3555)">
<path d="M208.477 25.4753C208.481 28.543 207.576 31.5432 205.875 34.0959C204.173 36.6487 201.753 38.6391 198.92 39.8154C196.086 40.9916 192.968 41.3007 189.959 40.7034C186.95 40.1061 184.186 38.6293 182.016 36.4601C179.847 34.2909 178.37 31.5268 177.773 28.5178C177.176 25.5088 177.485 22.3902 178.661 19.557C179.837 16.7237 181.828 14.3032 184.381 12.6019C186.933 10.9007 189.934 9.99513 193.001 10C197.106 10 201.042 11.6304 203.944 14.5326C206.846 17.4348 208.477 21.371 208.477 25.4753Z" fill="#A46C38"/>
</g>
<path d="M121.767 197.58L120.327 195.66L128.247 197.22V201H106.467V197.22L115.887 195.72L114.387 197.58V165L116.427 165.12L106.287 170.82L103.887 166.32L115.647 158.64H121.767V197.58ZM131.529 197.34C131.529 196.1 131.949 195.1 132.789 194.34C133.669 193.58 134.669 193.2 135.789 193.2C137.069 193.2 138.089 193.58 138.849 194.34C139.609 195.1 139.989 196.1 139.989 197.34C139.989 198.58 139.569 199.58 138.729 200.34C137.889 201.1 136.909 201.48 135.789 201.48C134.509 201.48 133.469 201.1 132.669 200.34C131.909 199.58 131.529 198.58 131.529 197.34ZM157.664 201.66C155.384 201.66 153.104 201.38 150.824 200.82C148.544 200.26 146.404 199.42 144.404 198.3L146.324 193.08C148.124 193.96 149.964 194.66 151.844 195.18C153.764 195.66 155.624 195.9 157.424 195.9C159.144 195.9 160.684 195.64 162.044 195.12C163.404 194.6 164.464 193.8 165.224 192.72C166.024 191.64 166.424 190.28 166.424 188.64C166.424 187.24 166.104 186.02 165.464 184.98C164.824 183.94 163.844 183.14 162.524 182.58C161.204 182.02 159.484 181.74 157.364 181.74H152.144V176.46H157.184C159.944 176.46 162.024 175.9 163.424 174.78C164.864 173.66 165.584 172.04 165.584 169.92C165.584 167.64 164.844 166.02 163.364 165.06C161.924 164.06 160.084 163.56 157.844 163.56C156.564 163.56 155.284 163.7 154.004 163.98C152.724 164.22 151.464 164.54 150.224 164.94L151.184 163.92L150.464 170.46H146.024L145.544 160.62C147.904 159.86 150.264 159.28 152.624 158.88C154.984 158.44 157.244 158.22 159.404 158.22C162.004 158.22 164.324 158.58 166.364 159.3C168.444 159.98 170.084 161.08 171.284 162.6C172.484 164.12 173.084 166.16 173.084 168.72C173.084 171.76 172.184 174.14 170.384 175.86C168.584 177.58 166.004 178.66 162.644 179.1L162.404 178.5C166.324 178.74 169.224 179.76 171.104 181.56C172.984 183.32 173.924 185.76 173.924 188.88C173.924 191.08 173.484 192.98 172.604 194.58C171.764 196.18 170.584 197.52 169.064 198.6C167.584 199.64 165.864 200.42 163.904 200.94C161.944 201.42 159.864 201.66 157.664 201.66ZM207.983 184.872L207.371 185.016C208.523 183.84 209.747 182.952 211.043 182.352C212.363 181.752 213.599 181.452 214.751 181.452C216.263 181.452 217.523 181.944 218.531 182.928C219.539 183.912 220.043 185.436 220.043 187.5V198.588L219.611 197.94L222.599 198.768V201H213.491V198.768L216.263 198.012L215.723 198.696V188.436C215.723 187.188 215.459 186.264 214.931 185.664C214.403 185.064 213.731 184.764 212.915 184.764C212.195 184.764 211.403 184.98 210.539 185.412C209.699 185.82 208.847 186.444 207.983 187.284L208.307 186.312C208.355 186.504 208.379 186.684 208.379 186.852C208.379 187.02 208.379 187.176 208.379 187.32V198.588L207.947 197.94L210.647 198.768V201H201.827V198.768L204.599 198.012L204.059 198.696V188.436C204.059 187.188 203.795 186.264 203.267 185.664C202.739 185.064 202.067 184.764 201.251 184.764C200.555 184.764 199.775 184.968 198.911 185.376C198.047 185.76 197.207 186.36 196.391 187.176L196.715 186.492V198.696L196.283 198.012L198.947 198.768V201H189.839V198.768L192.935 197.94L192.395 198.588V184.296L192.935 185.016L189.839 184.188V181.956L195.743 181.668L196.319 185.16L195.743 184.944C196.895 183.792 198.107 182.928 199.379 182.352C200.675 181.752 201.911 181.452 203.087 181.452C204.191 181.452 205.175 181.728 206.039 182.28C206.903 182.832 207.551 183.696 207.983 184.872ZM230.559 198.408L230.199 198.012L233.115 198.768V201H223.719V198.768L226.599 198.012L226.239 198.408V175.944L226.563 176.304L223.719 175.584V173.352L230.559 173.064V198.408ZM234.91 201V198.768L237.898 197.976L237.466 198.66V184.26L237.97 185.016L234.91 184.188V181.956L240.814 181.668L241.39 185.124L240.814 184.98C241.894 183.852 242.95 182.988 243.982 182.388C245.038 181.764 246.178 181.452 247.402 181.452C248.17 181.452 248.974 181.572 249.814 181.812L249.526 188.004H247.006L246.502 184.152L246.898 185.016C246.754 184.968 246.598 184.932 246.43 184.908C246.262 184.884 246.094 184.872 245.926 184.872C245.11 184.872 244.306 185.124 243.514 185.628C242.746 186.108 242.05 186.744 241.426 187.536L241.786 186.348V198.66L241.246 197.976L244.918 198.768V201H234.91ZM258.108 201.396C256.74 201.396 255.516 201.036 254.436 200.316C253.38 199.572 252.54 198.48 251.916 197.04C251.292 195.6 250.98 193.86 250.98 191.82C250.98 188.34 251.868 185.748 253.644 184.044C255.42 182.316 257.892 181.452 261.06 181.452C261.612 181.452 262.176 181.488 262.752 181.56C263.328 181.608 263.928 181.704 264.552 181.848L263.76 182.352V175.98L264.084 176.448L261.024 175.548V173.352L268.08 173.064V198.552L267.504 197.904L270.6 198.732V200.964L264.696 201.216L264.12 198.12L264.588 198.3C263.532 199.332 262.464 200.112 261.384 200.64C260.328 201.144 259.236 201.396 258.108 201.396ZM259.728 198.192C260.424 198.192 261.156 198 261.924 197.616C262.692 197.232 263.472 196.668 264.264 195.924L263.76 197.256V184.116L264.3 185.124C263.052 184.74 261.924 184.548 260.916 184.548C259.068 184.548 257.7 185.16 256.812 186.384C255.924 187.608 255.48 189.288 255.48 191.424C255.48 192.816 255.66 194.028 256.02 195.06C256.38 196.068 256.872 196.848 257.496 197.4C258.144 197.928 258.888 198.192 259.728 198.192Z" fill="#770613"/>
<path d="M111.245 270V268.893L113.223 268.646V259.058L111.21 259.093V258.012L114.954 257.203V268.646L116.923 268.893V270H111.245ZM118.777 272.733L117.802 272.083C118.077 271.661 118.285 271.23 118.426 270.791C118.566 270.352 118.637 269.886 118.637 269.394V268.058H120.368V269.367C120.368 269.941 120.225 270.542 119.938 271.169C119.65 271.796 119.264 272.317 118.777 272.733ZM125.809 270.185C125.029 270.185 124.335 270.044 123.726 269.763C123.116 269.476 122.639 269.071 122.293 268.55C121.953 268.022 121.792 267.398 121.81 266.678L121.836 266.625H123.488C123.488 267.076 123.582 267.466 123.77 267.794C123.957 268.122 124.224 268.377 124.569 268.559C124.915 268.74 125.328 268.831 125.809 268.831C126.541 268.831 127.115 268.632 127.531 268.233C127.947 267.835 128.155 267.246 128.155 266.467C128.155 265.676 127.971 265.093 127.602 264.718C127.232 264.343 126.649 264.155 125.853 264.155H124.341V262.802H125.853C126.362 262.802 126.772 262.717 127.083 262.547C127.394 262.371 127.616 262.122 127.751 261.8C127.892 261.472 127.962 261.079 127.962 260.622C127.962 259.89 127.78 259.333 127.417 258.952C127.054 258.571 126.518 258.381 125.809 258.381C125.357 258.381 124.965 258.472 124.631 258.653C124.297 258.829 124.036 259.081 123.849 259.409C123.667 259.731 123.576 260.112 123.576 260.552H121.915L121.897 260.499C121.88 259.854 122.032 259.269 122.354 258.741C122.683 258.214 123.143 257.795 123.734 257.484C124.332 257.174 125.023 257.019 125.809 257.019C126.992 257.019 127.936 257.335 128.639 257.968C129.342 258.595 129.693 259.491 129.693 260.657C129.693 261.185 129.532 261.712 129.21 262.239C128.894 262.761 128.416 263.159 127.777 263.435C128.545 263.687 129.087 264.082 129.403 264.621C129.726 265.16 129.887 265.764 129.887 266.432C129.887 267.211 129.711 267.882 129.359 268.444C129.014 269.001 128.533 269.432 127.918 269.736C127.303 270.035 126.6 270.185 125.809 270.185ZM136.004 270V268.893L137.437 268.646V261.853L136.004 261.606V260.49H138.992L139.106 261.729C139.411 261.278 139.804 260.93 140.284 260.684C140.765 260.438 141.321 260.314 141.954 260.314C142.587 260.314 143.129 260.461 143.58 260.754C144.037 261.047 144.38 261.486 144.608 262.072C144.907 261.533 145.303 261.105 145.795 260.789C146.287 260.473 146.861 260.314 147.518 260.314C148.49 260.314 149.258 260.648 149.82 261.316C150.383 261.979 150.664 262.978 150.664 264.313V268.646L152.097 268.893V270H147.491V268.893L148.924 268.646V264.296C148.924 263.358 148.763 262.696 148.44 262.31C148.118 261.917 147.641 261.721 147.008 261.721C146.404 261.721 145.918 261.935 145.549 262.362C145.186 262.784 144.975 263.317 144.916 263.962V268.646L146.349 268.893V270H141.752V268.893L143.185 268.646V264.296C143.185 263.405 143.018 262.755 142.684 262.345C142.355 261.929 141.878 261.721 141.251 261.721C140.724 261.721 140.29 261.829 139.95 262.046C139.61 262.263 139.35 262.567 139.168 262.96V268.646L140.601 268.893V270H136.004ZM153.301 270V268.893L154.733 268.646V257.651L153.301 257.405V256.289H156.465V268.646L157.897 268.893V270H153.301ZM159.119 270V268.893L160.552 268.646V261.853L159.119 261.606V260.49H162.099L162.248 261.703L162.266 261.87C162.535 261.384 162.866 261.003 163.259 260.728C163.657 260.452 164.111 260.314 164.621 260.314C164.803 260.314 164.987 260.332 165.175 260.367C165.368 260.396 165.506 260.426 165.588 260.455L165.359 262.063L164.155 261.993C163.698 261.964 163.314 262.069 163.004 262.31C162.693 262.544 162.453 262.86 162.283 263.259V268.646L163.716 268.893V270H159.119ZM170.202 270.185C169.429 270.185 168.764 269.994 168.207 269.613C167.656 269.227 167.234 268.69 166.941 268.005C166.648 267.319 166.502 266.52 166.502 265.605V265.421C166.502 264.401 166.648 263.508 166.941 262.74C167.234 261.973 167.659 261.378 168.216 260.956C168.772 260.528 169.44 260.314 170.22 260.314C170.782 260.314 171.277 260.42 171.705 260.631C172.139 260.836 172.508 261.135 172.812 261.527V257.651L171.38 257.405V256.289H172.812H174.544V268.646L175.977 268.893V270H173.041L172.9 268.866C172.59 269.3 172.209 269.628 171.758 269.851C171.312 270.073 170.794 270.185 170.202 270.185ZM170.642 268.778C171.157 268.778 171.591 268.661 171.942 268.427C172.294 268.192 172.584 267.861 172.812 267.434V263.021C172.59 262.623 172.3 262.307 171.942 262.072C171.585 261.838 171.157 261.721 170.659 261.721C170.108 261.721 169.654 261.879 169.297 262.195C168.939 262.506 168.673 262.939 168.497 263.496C168.321 264.047 168.233 264.688 168.233 265.421V265.605C168.233 266.561 168.43 267.328 168.822 267.908C169.215 268.488 169.821 268.778 170.642 268.778ZM181.373 270V268.893L182.428 268.69L185.267 265.192L182.489 261.809L181.549 261.606V260.49H185.275V261.606L184.326 261.712L186.277 264.138L188.176 261.703L187.156 261.606V260.49H190.821V261.606L189.854 261.809L187.279 265.166L190.241 268.69L191.226 268.893V270H187.191V268.893L188.334 268.796L186.251 266.256L184.229 268.796L185.258 268.893V270H181.373ZM192.175 270V268.893L193.607 268.646V261.853L192.175 261.606V260.49H195.339V268.646L196.771 268.893V270H192.175ZM193.52 258.144V256.289H195.339V258.144H193.52ZM201.324 270.149C200.621 270.149 200.062 269.944 199.646 269.534C199.235 269.118 199.03 268.456 199.03 267.548V261.773H197.527V260.49H199.03V258.196H200.762V260.49H202.827V261.773H200.762V267.548C200.762 268.005 200.853 268.342 201.034 268.559C201.216 268.775 201.459 268.884 201.764 268.884C201.969 268.884 202.197 268.866 202.449 268.831C202.701 268.79 202.897 268.755 203.038 268.726L203.275 269.859C203.023 269.936 202.713 270.003 202.344 270.062C201.98 270.12 201.641 270.149 201.324 270.149ZM208.505 270.185C207.626 270.185 206.867 269.979 206.229 269.569C205.596 269.153 205.106 268.582 204.761 267.855C204.415 267.123 204.242 266.288 204.242 265.351V265.157C204.242 264.22 204.415 263.388 204.761 262.661C205.106 261.929 205.596 261.354 206.229 260.938C206.867 260.522 207.62 260.314 208.487 260.314C209.366 260.314 210.122 260.522 210.755 260.938C211.394 261.354 211.886 261.926 212.231 262.652C212.577 263.379 212.75 264.214 212.75 265.157V265.351C212.75 266.294 212.577 267.132 212.231 267.864C211.886 268.591 211.396 269.159 210.764 269.569C210.131 269.979 209.378 270.185 208.505 270.185ZM208.505 268.831C209.056 268.831 209.516 268.682 209.885 268.383C210.26 268.078 210.541 267.665 210.729 267.144C210.922 266.616 211.019 266.019 211.019 265.351V265.157C211.019 264.489 210.922 263.895 210.729 263.373C210.541 262.846 210.26 262.433 209.885 262.134C209.51 261.829 209.044 261.677 208.487 261.677C207.937 261.677 207.474 261.829 207.099 262.134C206.724 262.433 206.442 262.846 206.255 263.373C206.067 263.895 205.974 264.489 205.974 265.157V265.351C205.974 266.019 206.067 266.616 206.255 267.144C206.442 267.665 206.724 268.078 207.099 268.383C207.479 268.682 207.948 268.831 208.505 268.831ZM215.835 273.841C215.7 273.841 215.524 273.823 215.308 273.788C215.091 273.759 214.924 273.729 214.807 273.7L214.982 272.338C215.082 272.35 215.22 272.358 215.396 272.364C215.571 272.376 215.691 272.382 215.756 272.382C216.125 272.382 216.424 272.241 216.652 271.96C216.887 271.679 217.104 271.295 217.303 270.809L217.716 269.807L214.35 261.747L213.33 261.606V260.49H217.32V261.606L216.169 261.782L218.023 266.537L218.472 267.776H218.524L220.722 261.782L219.509 261.606V260.49H223.42V261.606L222.436 261.747L218.691 271.459C218.516 271.916 218.302 272.323 218.05 272.681C217.804 273.044 217.499 273.328 217.136 273.533C216.778 273.738 216.345 273.841 215.835 273.841ZM223.982 270V268.893L225.415 268.646V257.651L223.982 257.405V256.289H227.146V268.646L228.579 268.893V270H223.982ZM229.757 270V268.893L231.189 268.646V261.853L229.757 261.606V260.49H232.921V268.646L234.354 268.893V270H229.757ZM231.102 258.144V256.289H232.921V258.144H231.102ZM235.461 270V268.893L236.894 268.646V257.651L235.461 257.405V256.289H238.625V268.646L240.058 268.893V270H235.461ZM241.569 270V268.893L242.536 268.778L242.51 268.743L239.759 265.192L240.655 263.812L244.496 268.682L245.867 268.893V270H241.569ZM238.502 267.249L237.86 265.887L241.991 261.773L242.035 261.721L241.016 261.606V260.49H245.111V261.606L243.89 261.835L238.502 267.249ZM246.781 270V268.893L248.214 268.646V257.651L246.781 257.405V256.289H249.945V268.646L251.378 268.893V270H246.781ZM255.693 270.185C254.703 270.185 253.95 269.944 253.435 269.464C252.919 268.978 252.661 268.295 252.661 267.416C252.661 266.812 252.825 266.288 253.153 265.843C253.487 265.392 253.968 265.043 254.595 264.797C255.222 264.545 255.972 264.419 256.845 264.419H258.541V263.487C258.541 262.913 258.365 262.468 258.014 262.151C257.668 261.835 257.179 261.677 256.546 261.677C256.147 261.677 255.802 261.727 255.509 261.826C255.216 261.92 254.949 262.052 254.709 262.222L254.524 263.549H253.188V261.369C253.616 261.023 254.114 260.763 254.683 260.587C255.251 260.405 255.881 260.314 256.572 260.314C257.727 260.314 258.632 260.59 259.288 261.141C259.944 261.691 260.272 262.479 260.272 263.505V268.084C260.272 268.207 260.272 268.327 260.272 268.444C260.278 268.562 260.287 268.679 260.299 268.796L261.222 268.893V270H258.734C258.682 269.742 258.641 269.511 258.611 269.306C258.582 269.101 258.562 268.896 258.55 268.69C258.216 269.118 257.797 269.476 257.293 269.763C256.795 270.044 256.262 270.185 255.693 270.185ZM255.948 268.734C256.522 268.734 257.047 268.597 257.521 268.321C257.996 268.046 258.336 267.715 258.541 267.328V265.605H256.783C255.986 265.605 255.389 265.796 254.99 266.177C254.592 266.558 254.393 266.982 254.393 267.451C254.393 267.867 254.521 268.187 254.779 268.409C255.037 268.626 255.427 268.734 255.948 268.734ZM262.549 270V268.893L263.981 268.646V261.853L262.549 261.606V260.49H265.528L265.678 261.703L265.695 261.87C265.965 261.384 266.296 261.003 266.688 260.728C267.087 260.452 267.541 260.314 268.051 260.314C268.232 260.314 268.417 260.332 268.604 260.367C268.798 260.396 268.936 260.426 269.018 260.455L268.789 262.063L267.585 261.993C267.128 261.964 266.744 262.069 266.434 262.31C266.123 262.544 265.883 262.86 265.713 263.259V268.646L267.146 268.893V270H262.549Z" fill="#770613"/>
<path d="M89.73 293.277C89.5425 293.277 89.3726 293.262 89.2202 293.233C89.0679 293.209 88.9097 293.171 88.7456 293.119L88.8599 291.8C88.9419 291.83 89.0796 291.856 89.2729 291.879C89.4722 291.903 89.6245 291.915 89.73 291.915C90.0757 291.915 90.3481 291.762 90.5474 291.458C90.7524 291.159 90.855 290.746 90.855 290.218V281.289L89.4224 281.042V279.926H92.5864V290.218C92.5864 291.197 92.3345 291.95 91.8306 292.477C91.3267 293.01 90.6265 293.277 89.73 293.277ZM90.7671 277.58V275.725H92.5864V277.58H90.7671ZM98.8442 289.621C97.9653 289.621 97.2007 289.421 96.5503 289.023C95.8999 288.619 95.396 288.059 95.0386 287.344C94.687 286.629 94.5112 285.803 94.5112 284.866V284.479C94.5112 283.577 94.6958 282.771 95.0649 282.062C95.4399 281.347 95.9351 280.785 96.5503 280.375C97.1714 279.958 97.8481 279.75 98.5806 279.75C99.436 279.75 100.151 279.926 100.725 280.278C101.305 280.629 101.742 281.125 102.035 281.763C102.328 282.396 102.474 283.143 102.474 284.004V285.085H96.3042L96.2778 285.129C96.2896 285.739 96.395 286.281 96.5942 286.755C96.7993 287.224 97.0923 287.593 97.4731 287.863C97.854 288.132 98.311 288.267 98.8442 288.267C99.4302 288.267 99.9429 288.185 100.382 288.021C100.828 287.851 101.211 287.62 101.534 287.327L102.21 288.452C101.871 288.78 101.419 289.058 100.857 289.287C100.3 289.509 99.6294 289.621 98.8442 289.621ZM96.3569 283.732H100.743V283.503C100.743 283.046 100.661 282.639 100.497 282.282C100.338 281.918 100.098 281.634 99.7759 281.429C99.4595 281.218 99.061 281.113 98.5806 281.113C98.1938 281.113 97.8423 281.227 97.5259 281.456C97.2095 281.678 96.9487 281.983 96.7437 282.37C96.5386 282.756 96.4038 283.196 96.3394 283.688L96.3569 283.732ZM103.828 289.436V288.329L105.26 288.083V281.289L103.828 281.042V279.926H106.807L106.93 281.341C107.247 280.837 107.642 280.448 108.117 280.172C108.597 279.891 109.142 279.75 109.751 279.75C110.777 279.75 111.571 280.052 112.133 280.656C112.696 281.253 112.977 282.179 112.977 283.433V288.083L114.41 288.329V289.436H109.813V288.329L111.246 288.083V283.468C111.246 282.63 111.079 282.036 110.745 281.684C110.417 281.333 109.913 281.157 109.233 281.157C108.735 281.157 108.292 281.277 107.906 281.517C107.525 281.757 107.22 282.085 106.992 282.501V288.083L108.424 288.329V289.436H103.828ZM119.49 289.621C118.851 289.621 118.253 289.556 117.697 289.427C117.14 289.298 116.548 289.099 115.921 288.83L115.904 286.571H117.213L117.539 287.933C117.867 288.068 118.183 288.167 118.488 288.232C118.798 288.291 119.132 288.32 119.49 288.32C120.193 288.32 120.697 288.185 121.001 287.916C121.306 287.646 121.458 287.312 121.458 286.914C121.458 286.539 121.303 286.222 120.993 285.964C120.688 285.701 120.131 285.478 119.323 285.296C118.174 285.033 117.328 284.681 116.783 284.242C116.244 283.796 115.974 283.205 115.974 282.466C115.974 281.951 116.124 281.491 116.422 281.086C116.721 280.676 117.137 280.351 117.67 280.111C118.204 279.871 118.825 279.75 119.534 279.75C120.254 279.75 120.87 279.833 121.379 279.997C121.895 280.161 122.343 280.38 122.724 280.656L122.812 282.827H121.511L121.23 281.561C121.025 281.409 120.782 281.292 120.5 281.209C120.219 281.127 119.897 281.086 119.534 281.086C118.995 281.086 118.555 281.212 118.215 281.464C117.881 281.716 117.714 282.033 117.714 282.414C117.714 282.636 117.761 282.83 117.855 282.994C117.955 283.158 118.142 283.307 118.417 283.442C118.693 283.571 119.097 283.7 119.63 283.829C120.955 284.139 121.877 284.535 122.399 285.015C122.926 285.496 123.19 286.087 123.19 286.791C123.19 287.593 122.891 288.267 122.293 288.812C121.702 289.351 120.767 289.621 119.49 289.621ZM124.403 289.436V288.329L125.835 288.083V277.087L124.403 276.841V275.725H127.567V281.192C127.895 280.735 128.296 280.38 128.771 280.128C129.246 279.876 129.773 279.75 130.353 279.75C131.373 279.75 132.164 280.055 132.726 280.665C133.289 281.274 133.57 282.211 133.57 283.477V288.083L135.002 288.329V289.436H130.406V288.329L131.838 288.083V283.459C131.838 282.674 131.668 282.094 131.329 281.719C130.995 281.344 130.494 281.157 129.826 281.157C129.351 281.157 128.917 281.271 128.525 281.5C128.138 281.722 127.819 282.027 127.567 282.414V288.083L129 288.329V289.436H124.403ZM140.381 289.621C139.502 289.621 138.738 289.421 138.087 289.023C137.437 288.619 136.933 288.059 136.576 287.344C136.224 286.629 136.048 285.803 136.048 284.866V284.479C136.048 283.577 136.233 282.771 136.602 282.062C136.977 281.347 137.472 280.785 138.087 280.375C138.708 279.958 139.385 279.75 140.118 279.75C140.973 279.75 141.688 279.926 142.262 280.278C142.842 280.629 143.279 281.125 143.572 281.763C143.865 282.396 144.011 283.143 144.011 284.004V285.085H137.841L137.815 285.129C137.827 285.739 137.932 286.281 138.131 286.755C138.336 287.224 138.629 287.593 139.01 287.863C139.391 288.132 139.848 288.267 140.381 288.267C140.967 288.267 141.48 288.185 141.919 288.021C142.365 287.851 142.749 287.62 143.071 287.327L143.748 288.452C143.408 288.78 142.957 289.058 142.394 289.287C141.837 289.509 141.167 289.621 140.381 289.621ZM137.894 283.732H142.28V283.503C142.28 283.046 142.198 282.639 142.034 282.282C141.875 281.918 141.635 281.634 141.313 281.429C140.997 281.218 140.598 281.113 140.118 281.113C139.731 281.113 139.379 281.227 139.063 281.456C138.747 281.678 138.486 281.983 138.281 282.37C138.076 282.756 137.941 283.196 137.876 283.688L137.894 283.732ZM145.365 289.436V288.329L146.797 288.083V281.289L145.365 281.042V279.926H148.344L148.467 281.341C148.784 280.837 149.179 280.448 149.654 280.172C150.134 279.891 150.679 279.75 151.289 279.75C152.314 279.75 153.108 280.052 153.67 280.656C154.233 281.253 154.514 282.179 154.514 283.433V288.083L155.947 288.329V289.436H151.35V288.329L152.783 288.083V283.468C152.783 282.63 152.616 282.036 152.282 281.684C151.954 281.333 151.45 281.157 150.77 281.157C150.272 281.157 149.83 281.277 149.443 281.517C149.062 281.757 148.757 282.085 148.529 282.501V288.083L149.961 288.329V289.436H145.365ZM157.177 289.436V288.329L158.61 288.083V281.289L157.177 281.042V279.926H160.157L160.28 281.341C160.596 280.837 160.992 280.448 161.466 280.172C161.947 279.891 162.492 279.75 163.101 279.75C164.126 279.75 164.92 280.052 165.483 280.656C166.045 281.253 166.327 282.179 166.327 283.433V288.083L167.759 288.329V289.436H163.163V288.329L164.595 288.083V283.468C164.595 282.63 164.428 282.036 164.094 281.684C163.766 281.333 163.262 281.157 162.583 281.157C162.084 281.157 161.642 281.277 161.255 281.517C160.875 281.757 160.57 282.085 160.341 282.501V288.083L161.774 288.329V289.436H157.177ZM168.928 289.436V288.329L170.361 288.083V281.289L168.928 281.042V279.926H172.092V288.083L173.525 288.329V289.436H168.928ZM170.273 277.58V275.725H172.092V277.58H170.273ZM179.141 289.436V288.329L180.574 288.083V281.289L179.141 281.042V279.926H182.305V288.083L183.738 288.329V289.436H179.141ZM180.486 277.58V275.725H182.305V277.58H180.486ZM184.933 289.436V288.329L186.366 288.083V281.289L184.933 281.042V279.926H187.913L188.036 281.341C188.352 280.837 188.748 280.448 189.222 280.172C189.703 279.891 190.248 279.75 190.857 279.75C191.882 279.75 192.676 280.052 193.239 280.656C193.801 281.253 194.083 282.179 194.083 283.433V288.083L195.515 288.329V289.436H190.918V288.329L192.351 288.083V283.468C192.351 282.63 192.184 282.036 191.85 281.684C191.522 281.333 191.018 281.157 190.338 281.157C189.84 281.157 189.398 281.277 189.011 281.517C188.63 281.757 188.326 282.085 188.097 282.501V288.083L189.53 288.329V289.436H184.933ZM200.595 289.621C199.957 289.621 199.359 289.556 198.802 289.427C198.246 289.298 197.654 289.099 197.027 288.83L197.009 286.571H198.319L198.644 287.933C198.972 288.068 199.289 288.167 199.593 288.232C199.904 288.291 200.238 288.32 200.595 288.32C201.298 288.32 201.802 288.185 202.107 287.916C202.412 287.646 202.564 287.312 202.564 286.914C202.564 286.539 202.409 286.222 202.098 285.964C201.793 285.701 201.237 285.478 200.428 285.296C199.28 285.033 198.433 284.681 197.888 284.242C197.349 283.796 197.08 283.205 197.08 282.466C197.08 281.951 197.229 281.491 197.528 281.086C197.827 280.676 198.243 280.351 198.776 280.111C199.309 279.871 199.93 279.75 200.639 279.75C201.36 279.75 201.975 279.833 202.485 279.997C203 280.161 203.449 280.38 203.83 280.656L203.917 282.827H202.617L202.335 281.561C202.13 281.409 201.887 281.292 201.606 281.209C201.325 281.127 201.002 281.086 200.639 281.086C200.1 281.086 199.661 281.212 199.321 281.464C198.987 281.716 198.82 282.033 198.82 282.414C198.82 282.636 198.867 282.83 198.96 282.994C199.06 283.158 199.248 283.307 199.523 283.442C199.798 283.571 200.203 283.7 200.736 283.829C202.06 284.139 202.983 284.535 203.504 285.015C204.032 285.496 204.295 286.087 204.295 286.791C204.295 287.593 203.997 288.267 203.399 288.812C202.807 289.351 201.873 289.621 200.595 289.621ZM210.026 289.621C209.147 289.621 208.388 289.416 207.75 289.005C207.117 288.589 206.627 288.018 206.282 287.292C205.936 286.559 205.763 285.724 205.763 284.787V284.593C205.763 283.656 205.936 282.824 206.282 282.097C206.627 281.365 207.117 280.791 207.75 280.375C208.388 279.958 209.141 279.75 210.008 279.75C210.887 279.75 211.643 279.958 212.276 280.375C212.915 280.791 213.407 281.362 213.752 282.088C214.098 282.815 214.271 283.65 214.271 284.593V284.787C214.271 285.73 214.098 286.568 213.752 287.3C213.407 288.027 212.917 288.595 212.285 289.005C211.652 289.416 210.899 289.621 210.026 289.621ZM210.026 288.267C210.577 288.267 211.037 288.118 211.406 287.819C211.781 287.514 212.062 287.101 212.25 286.58C212.443 286.052 212.54 285.455 212.54 284.787V284.593C212.54 283.925 212.443 283.331 212.25 282.809C212.062 282.282 211.781 281.869 211.406 281.57C211.031 281.265 210.565 281.113 210.008 281.113C209.458 281.113 208.995 281.265 208.62 281.57C208.245 281.869 207.963 282.282 207.776 282.809C207.588 283.331 207.495 283.925 207.495 284.593V284.787C207.495 285.455 207.588 286.052 207.776 286.58C207.963 287.101 208.245 287.514 208.62 287.819C209 288.118 209.469 288.267 210.026 288.267ZM215.607 289.436V288.329L217.04 288.083V281.289L215.607 281.042V279.926H218.586L218.709 281.341C219.026 280.837 219.421 280.448 219.896 280.172C220.376 279.891 220.921 279.75 221.531 279.75C222.556 279.75 223.35 280.052 223.913 280.656C224.475 281.253 224.756 282.179 224.756 283.433V288.083L226.189 288.329V289.436H221.592V288.329L223.025 288.083V283.468C223.025 282.63 222.858 282.036 222.524 281.684C222.196 281.333 221.692 281.157 221.012 281.157C220.514 281.157 220.072 281.277 219.685 281.517C219.304 281.757 219 282.085 218.771 282.501V288.083L220.204 288.329V289.436H215.607ZM236.085 289.621C235.054 289.621 234.249 289.29 233.668 288.627C233.088 287.965 232.798 286.934 232.798 285.534V281.289L231.708 281.042V279.926H232.798H234.53V285.551C234.53 286.565 234.679 287.262 234.978 287.643C235.277 288.024 235.743 288.214 236.375 288.214C236.991 288.214 237.498 288.091 237.896 287.845C238.3 287.593 238.605 287.239 238.81 286.782V281.289L237.536 281.042V279.926H238.81H240.542V288.083L241.631 288.329V289.436H238.986L238.872 288.03C238.573 288.54 238.186 288.932 237.711 289.208C237.243 289.483 236.701 289.621 236.085 289.621ZM247.151 289.621C246.29 289.621 245.54 289.421 244.901 289.023C244.262 288.619 243.767 288.059 243.416 287.344C243.064 286.629 242.888 285.803 242.888 284.866V284.497C242.888 283.594 243.058 282.786 243.398 282.071C243.738 281.356 244.227 280.791 244.866 280.375C245.504 279.958 246.266 279.75 247.151 279.75C247.918 279.75 248.589 279.876 249.164 280.128C249.744 280.38 250.23 280.726 250.623 281.166L250.667 283.451H249.313L249.014 281.79C248.815 281.584 248.566 281.42 248.267 281.297C247.968 281.174 247.617 281.113 247.212 281.113C246.697 281.113 246.243 281.265 245.85 281.57C245.463 281.875 245.162 282.282 244.945 282.792C244.728 283.301 244.62 283.87 244.62 284.497V284.866C244.62 285.557 244.719 286.158 244.918 286.667C245.124 287.177 245.414 287.573 245.789 287.854C246.169 288.129 246.621 288.267 247.142 288.267C247.728 288.267 248.214 288.106 248.601 287.784C248.988 287.461 249.225 287.019 249.313 286.457H250.869L250.886 286.509C250.857 287.054 250.696 287.564 250.403 288.039C250.11 288.513 249.691 288.897 249.146 289.19C248.607 289.477 247.942 289.621 247.151 289.621ZM252.02 289.436V288.329L253.453 288.083V277.087L252.02 276.841V275.725H255.184V281.192C255.512 280.735 255.914 280.38 256.388 280.128C256.863 279.876 257.39 279.75 257.97 279.75C258.99 279.75 259.781 280.055 260.343 280.665C260.906 281.274 261.187 282.211 261.187 283.477V288.083L262.62 288.329V289.436H258.023V288.329L259.456 288.083V283.459C259.456 282.674 259.286 282.094 258.946 281.719C258.612 281.344 258.111 281.157 257.443 281.157C256.968 281.157 256.535 281.271 256.142 281.5C255.755 281.722 255.436 282.027 255.184 282.414V288.083L256.617 288.329V289.436H252.02ZM267.638 289.621C266.607 289.621 265.801 289.29 265.221 288.627C264.641 287.965 264.351 286.934 264.351 285.534V281.289L263.261 281.042V279.926H264.351H266.083V285.551C266.083 286.565 266.232 287.262 266.531 287.643C266.83 288.024 267.295 288.214 267.928 288.214C268.543 288.214 269.05 288.091 269.449 287.845C269.853 287.593 270.158 287.239 270.363 286.782V281.289L269.088 281.042V279.926H270.363H272.094V288.083L273.184 288.329V289.436H270.539L270.424 288.03C270.125 288.54 269.739 288.932 269.264 289.208C268.795 289.483 268.253 289.621 267.638 289.621ZM274.406 289.436V288.329L275.838 288.083V281.289L274.406 281.042V279.926H277.385L277.508 281.341C277.825 280.837 278.22 280.448 278.695 280.172C279.175 279.891 279.72 279.75 280.33 279.75C281.355 279.75 282.149 280.052 282.711 280.656C283.274 281.253 283.555 282.179 283.555 283.433V288.083L284.988 288.329V289.436H280.391V288.329L281.824 288.083V283.468C281.824 282.63 281.657 282.036 281.323 281.684C280.995 281.333 280.491 281.157 279.811 281.157C279.313 281.157 278.871 281.277 278.484 281.517C278.103 281.757 277.798 282.085 277.57 282.501V288.083L279.002 288.329V289.436H274.406ZM105.014 310.621C104.135 310.621 103.371 310.421 102.72 310.023C102.07 309.619 101.566 309.059 101.208 308.344C100.857 307.629 100.681 306.803 100.681 305.866V305.479C100.681 304.577 100.866 303.771 101.235 303.062C101.61 302.347 102.105 301.785 102.72 301.375C103.341 300.958 104.018 300.75 104.75 300.75C105.606 300.75 106.321 300.926 106.895 301.278C107.475 301.629 107.912 302.125 108.205 302.763C108.498 303.396 108.644 304.143 108.644 305.004V306.085H102.474L102.448 306.129C102.459 306.739 102.565 307.281 102.764 307.755C102.969 308.224 103.262 308.593 103.643 308.863C104.024 309.132 104.481 309.267 105.014 309.267C105.6 309.267 106.113 309.185 106.552 309.021C106.998 308.851 107.381 308.62 107.704 308.327L108.38 309.452C108.041 309.78 107.589 310.058 107.027 310.287C106.47 310.509 105.799 310.621 105.014 310.621ZM102.527 304.732H106.913V304.503C106.913 304.046 106.831 303.639 106.667 303.282C106.508 302.918 106.268 302.634 105.946 302.429C105.629 302.218 105.231 302.113 104.75 302.113C104.364 302.113 104.012 302.227 103.696 302.456C103.379 302.678 103.119 302.983 102.914 303.37C102.708 303.756 102.574 304.196 102.509 304.688L102.527 304.732ZM109.998 310.436V309.329L111.43 309.083V302.289L109.998 302.042V300.926H112.977L113.1 302.341C113.417 301.837 113.812 301.448 114.287 301.172C114.767 300.891 115.312 300.75 115.921 300.75C116.947 300.75 117.741 301.052 118.303 301.656C118.866 302.253 119.147 303.179 119.147 304.433V309.083L120.58 309.329V310.436H115.983V309.329L117.416 309.083V304.468C117.416 303.63 117.249 303.036 116.915 302.684C116.586 302.333 116.083 302.157 115.403 302.157C114.905 302.157 114.462 302.277 114.076 302.517C113.695 302.757 113.39 303.085 113.162 303.501V309.083L114.594 309.329V310.436H109.998ZM125.897 314.277C125.44 314.277 124.945 314.212 124.412 314.083C123.878 313.96 123.41 313.791 123.005 313.574L123.454 312.229C123.776 312.399 124.157 312.54 124.596 312.651C125.036 312.762 125.463 312.818 125.879 312.818C126.653 312.818 127.218 312.601 127.576 312.167C127.939 311.734 128.121 311.116 128.121 310.313V309.408C127.81 309.806 127.438 310.108 127.004 310.313C126.571 310.518 126.073 310.621 125.51 310.621C124.737 310.621 124.069 310.43 123.506 310.049C122.944 309.663 122.51 309.126 122.206 308.441C121.907 307.75 121.757 306.95 121.757 306.042V305.857C121.757 304.837 121.907 303.944 122.206 303.176C122.51 302.409 122.944 301.814 123.506 301.392C124.069 300.964 124.743 300.75 125.528 300.75C126.125 300.75 126.65 300.868 127.101 301.102C127.552 301.336 127.93 301.676 128.235 302.122L128.393 300.926H129.852V310.313C129.852 311.133 129.697 311.839 129.386 312.431C129.082 313.023 128.633 313.477 128.042 313.793C127.456 314.116 126.741 314.277 125.897 314.277ZM125.941 309.214C126.462 309.214 126.899 309.097 127.25 308.863C127.602 308.623 127.892 308.286 128.121 307.852V303.475C127.898 303.071 127.608 302.751 127.25 302.517C126.893 302.277 126.462 302.157 125.958 302.157C125.408 302.157 124.948 302.315 124.579 302.631C124.215 302.948 123.943 303.384 123.761 303.941C123.58 304.492 123.489 305.13 123.489 305.857V306.042C123.489 306.997 123.691 307.764 124.095 308.344C124.5 308.924 125.115 309.214 125.941 309.214ZM129.588 302.341L128.912 300.926H131.03V302.034L129.588 302.341ZM136.347 310.436V309.329L137.78 309.083V302.209H136.294V300.926H137.78V299.722C137.78 298.708 138.043 297.926 138.571 297.375C139.104 296.819 139.845 296.541 140.794 296.541C140.994 296.541 141.208 296.558 141.436 296.593C141.67 296.623 141.911 296.667 142.157 296.725L141.946 298.043C141.84 298.02 141.697 298 141.515 297.982C141.339 297.964 141.172 297.956 141.014 297.956C140.504 297.956 140.126 298.108 139.88 298.413C139.634 298.711 139.511 299.148 139.511 299.722V300.926H141.585V302.209H139.511V309.083L141.146 309.329V310.436H136.347ZM146.973 310.621C146.094 310.621 145.335 310.416 144.697 310.005C144.064 309.589 143.575 309.018 143.229 308.292C142.883 307.559 142.71 306.724 142.71 305.787V305.593C142.71 304.656 142.883 303.824 143.229 303.097C143.575 302.365 144.064 301.791 144.697 301.375C145.335 300.958 146.088 300.75 146.956 300.75C147.834 300.75 148.59 300.958 149.223 301.375C149.862 301.791 150.354 302.362 150.7 303.088C151.045 303.815 151.218 304.65 151.218 305.593V305.787C151.218 306.73 151.045 307.568 150.7 308.3C150.354 309.027 149.865 309.595 149.232 310.005C148.599 310.416 147.846 310.621 146.973 310.621ZM146.973 309.267C147.524 309.267 147.984 309.118 148.353 308.819C148.728 308.514 149.009 308.101 149.197 307.58C149.39 307.052 149.487 306.455 149.487 305.787V305.593C149.487 304.925 149.39 304.331 149.197 303.809C149.009 303.282 148.728 302.869 148.353 302.57C147.978 302.265 147.512 302.113 146.956 302.113C146.405 302.113 145.942 302.265 145.567 302.57C145.192 302.869 144.911 303.282 144.723 303.809C144.536 304.331 144.442 304.925 144.442 305.593V305.787C144.442 306.455 144.536 307.052 144.723 307.58C144.911 308.101 145.192 308.514 145.567 308.819C145.948 309.118 146.417 309.267 146.973 309.267ZM154.303 314.277C154.168 314.277 153.993 314.259 153.776 314.224C153.559 314.195 153.392 314.166 153.275 314.136L153.451 312.774C153.55 312.786 153.688 312.794 153.864 312.8C154.04 312.812 154.16 312.818 154.224 312.818C154.593 312.818 154.892 312.677 155.121 312.396C155.355 312.115 155.572 311.731 155.771 311.245L156.184 310.243L152.818 302.183L151.798 302.042V300.926H155.789V302.042L154.637 302.218L156.492 306.973L156.94 308.212H156.993L159.19 302.218L157.977 302.042V300.926H161.888V302.042L160.904 302.183L157.16 311.895C156.984 312.352 156.77 312.759 156.518 313.117C156.272 313.48 155.967 313.764 155.604 313.969C155.247 314.174 154.813 314.277 154.303 314.277ZM166.327 310.621C165.553 310.621 164.888 310.43 164.332 310.049C163.781 309.663 163.359 309.126 163.066 308.441C162.773 307.755 162.626 306.956 162.626 306.042V305.857C162.626 304.837 162.773 303.944 163.066 303.176C163.359 302.409 163.784 301.814 164.34 301.392C164.897 300.964 165.565 300.75 166.344 300.75C166.907 300.75 167.402 300.856 167.83 301.067C168.263 301.272 168.632 301.571 168.937 301.963V298.087L167.504 297.841V296.725H168.937H170.668V309.083L172.101 309.329V310.436H169.166L169.025 309.302C168.714 309.736 168.333 310.064 167.882 310.287C167.437 310.509 166.918 310.621 166.327 310.621ZM166.766 309.214C167.282 309.214 167.715 309.097 168.067 308.863C168.418 308.628 168.708 308.297 168.937 307.87V303.458C168.714 303.059 168.424 302.743 168.067 302.508C167.709 302.274 167.282 302.157 166.784 302.157C166.233 302.157 165.779 302.315 165.421 302.631C165.064 302.942 164.797 303.375 164.622 303.932C164.446 304.483 164.358 305.125 164.358 305.857V306.042C164.358 306.997 164.554 307.764 164.947 308.344C165.339 308.924 165.946 309.214 166.766 309.214ZM176.373 310.621C175.382 310.621 174.629 310.38 174.114 309.9C173.598 309.414 173.34 308.731 173.34 307.852C173.34 307.249 173.504 306.724 173.833 306.279C174.167 305.828 174.647 305.479 175.274 305.233C175.901 304.981 176.651 304.855 177.524 304.855H179.22V303.923C179.22 303.349 179.044 302.904 178.693 302.587C178.347 302.271 177.858 302.113 177.225 302.113C176.827 302.113 176.481 302.163 176.188 302.262C175.895 302.356 175.628 302.488 175.388 302.658L175.204 303.985H173.868V301.805C174.295 301.459 174.793 301.199 175.362 301.023C175.93 300.841 176.56 300.75 177.251 300.75C178.406 300.75 179.311 301.026 179.967 301.577C180.624 302.127 180.952 302.916 180.952 303.941V308.52C180.952 308.643 180.952 308.763 180.952 308.88C180.958 308.998 180.966 309.115 180.978 309.232L181.901 309.329V310.436H179.414C179.361 310.178 179.32 309.947 179.291 309.742C179.261 309.537 179.241 309.332 179.229 309.126C178.895 309.554 178.476 309.912 177.972 310.199C177.474 310.48 176.941 310.621 176.373 310.621ZM176.627 309.17C177.202 309.17 177.726 309.033 178.201 308.757C178.675 308.482 179.015 308.151 179.22 307.764V306.042H177.462C176.666 306.042 176.068 306.232 175.669 306.613C175.271 306.994 175.072 307.418 175.072 307.887C175.072 308.303 175.201 308.623 175.458 308.845C175.716 309.062 176.106 309.17 176.627 309.17ZM183.158 310.436V309.329L184.59 309.083V298.087L183.158 297.841V296.725H186.322V309.083L187.754 309.329V310.436H183.158ZM188.932 310.436V309.329L190.365 309.083V302.289L188.932 302.042V300.926H192.096V309.083L193.529 309.329V310.436H188.932ZM190.277 298.58V296.725H192.096V298.58H190.277ZM199.207 310.436V309.329L200.639 309.083V302.289L199.207 302.042V300.926H202.195L202.309 302.166C202.614 301.714 203.006 301.366 203.487 301.12C203.967 300.874 204.524 300.75 205.157 300.75C205.79 300.75 206.332 300.897 206.783 301.19C207.24 301.483 207.583 301.922 207.811 302.508C208.11 301.969 208.505 301.542 208.998 301.225C209.49 300.909 210.064 300.75 210.72 300.75C211.693 300.75 212.46 301.084 213.023 301.752C213.585 302.415 213.867 303.414 213.867 304.75V309.083L215.299 309.329V310.436H210.694V309.329L212.126 309.083V304.732C212.126 303.794 211.965 303.132 211.643 302.746C211.321 302.353 210.843 302.157 210.21 302.157C209.607 302.157 209.121 302.371 208.751 302.798C208.388 303.22 208.177 303.753 208.119 304.398V309.083L209.551 309.329V310.436H204.955V309.329L206.387 309.083V304.732C206.387 303.841 206.22 303.191 205.886 302.781C205.558 302.365 205.081 302.157 204.454 302.157C203.926 302.157 203.493 302.265 203.153 302.482C202.813 302.699 202.552 303.003 202.371 303.396V309.083L203.803 309.329V310.436H199.207ZM219.667 310.621C218.677 310.621 217.924 310.38 217.409 309.9C216.893 309.414 216.635 308.731 216.635 307.852C216.635 307.249 216.799 306.724 217.127 306.279C217.461 305.828 217.942 305.479 218.569 305.233C219.196 304.981 219.946 304.855 220.819 304.855H222.515V303.923C222.515 303.349 222.339 302.904 221.988 302.587C221.642 302.271 221.153 302.113 220.52 302.113C220.122 302.113 219.776 302.163 219.483 302.262C219.19 302.356 218.923 302.488 218.683 302.658L218.499 303.985H217.163V301.805C217.59 301.459 218.088 301.199 218.657 301.023C219.225 300.841 219.855 300.75 220.546 300.75C221.701 300.75 222.606 301.026 223.262 301.577C223.918 302.127 224.247 302.916 224.247 303.941V308.52C224.247 308.643 224.247 308.763 224.247 308.88C224.252 308.998 224.261 309.115 224.273 309.232L225.196 309.329V310.436H222.708C222.656 310.178 222.615 309.947 222.585 309.742C222.556 309.537 222.536 309.332 222.524 309.126C222.19 309.554 221.771 309.912 221.267 310.199C220.769 310.48 220.236 310.621 219.667 310.621ZM219.922 309.17C220.497 309.17 221.021 309.033 221.496 308.757C221.97 308.482 222.31 308.151 222.515 307.764V306.042H220.757C219.96 306.042 219.363 306.232 218.964 306.613C218.566 306.994 218.367 307.418 218.367 307.887C218.367 308.303 218.496 308.623 218.753 308.845C219.011 309.062 219.401 309.17 219.922 309.17ZM226.321 310.436V309.329L227.753 309.083V298.087L226.321 297.841V296.725H229.485V302.192C229.813 301.735 230.214 301.38 230.689 301.128C231.164 300.876 231.691 300.75 232.271 300.75C233.291 300.75 234.082 301.055 234.644 301.665C235.207 302.274 235.488 303.211 235.488 304.477V309.083L236.92 309.329V310.436H232.324V309.329L233.756 309.083V304.459C233.756 303.674 233.586 303.094 233.247 302.719C232.913 302.344 232.412 302.157 231.744 302.157C231.269 302.157 230.835 302.271 230.443 302.5C230.056 302.722 229.737 303.027 229.485 303.414V309.083L230.917 309.329V310.436H226.321ZM241.957 310.621C241.318 310.621 240.72 310.556 240.164 310.427C239.607 310.298 239.015 310.099 238.388 309.83L238.371 307.571H239.68L240.005 308.933C240.333 309.068 240.65 309.167 240.955 309.232C241.265 309.291 241.599 309.32 241.957 309.32C242.66 309.32 243.164 309.185 243.468 308.916C243.773 308.646 243.925 308.312 243.925 307.914C243.925 307.539 243.77 307.222 243.459 306.964C243.155 306.701 242.598 306.478 241.79 306.296C240.641 306.033 239.794 305.681 239.25 305.242C238.71 304.796 238.441 304.205 238.441 303.466C238.441 302.951 238.59 302.491 238.889 302.086C239.188 301.676 239.604 301.351 240.137 301.111C240.67 300.871 241.292 300.75 242 300.75C242.721 300.75 243.336 300.833 243.846 300.997C244.362 301.161 244.81 301.38 245.191 301.656L245.279 303.827H243.978L243.697 302.561C243.492 302.409 243.249 302.292 242.967 302.209C242.686 302.127 242.364 302.086 242 302.086C241.461 302.086 241.022 302.212 240.682 302.464C240.348 302.716 240.181 303.033 240.181 303.414C240.181 303.636 240.228 303.83 240.322 303.994C240.421 304.158 240.609 304.307 240.884 304.442C241.16 304.571 241.564 304.7 242.097 304.829C243.421 305.139 244.344 305.535 244.866 306.015C245.393 306.496 245.657 307.087 245.657 307.791C245.657 308.593 245.358 309.267 244.76 309.812C244.168 310.351 243.234 310.621 241.957 310.621ZM251.273 310.621C250.242 310.621 249.436 310.29 248.856 309.627C248.276 308.965 247.986 307.934 247.986 306.534V302.289L246.896 302.042V300.926H247.986H249.717V306.551C249.717 307.565 249.867 308.262 250.166 308.643C250.464 309.024 250.93 309.214 251.563 309.214C252.178 309.214 252.685 309.091 253.083 308.845C253.488 308.593 253.792 308.239 253.998 307.782V302.289L252.723 302.042V300.926H253.998H255.729V309.083L256.819 309.329V310.436H254.173L254.059 309.03C253.76 309.54 253.374 309.932 252.899 310.208C252.43 310.483 251.888 310.621 251.273 310.621ZM257.953 310.436V309.329L259.385 309.083V298.087L257.953 297.841V296.725H261.117V309.083L262.549 309.329V310.436H257.953ZM267.911 310.621C267.032 310.621 266.273 310.416 265.634 310.005C265.001 309.589 264.512 309.018 264.167 308.292C263.821 307.559 263.648 306.724 263.648 305.787V305.593C263.648 304.656 263.821 303.824 264.167 303.097C264.512 302.365 265.001 301.791 265.634 301.375C266.273 300.958 267.026 300.75 267.893 300.75C268.772 300.75 269.528 300.958 270.161 301.375C270.799 301.791 271.292 302.362 271.637 303.088C271.983 303.815 272.156 304.65 272.156 305.593V305.787C272.156 306.73 271.983 307.568 271.637 308.3C271.292 309.027 270.802 309.595 270.169 310.005C269.537 310.416 268.784 310.621 267.911 310.621ZM267.911 309.267C268.461 309.267 268.921 309.118 269.291 308.819C269.666 308.514 269.947 308.101 270.134 307.58C270.328 307.052 270.424 306.455 270.424 305.787V305.593C270.424 304.925 270.328 304.331 270.134 303.809C269.947 303.282 269.666 302.869 269.291 302.57C268.916 302.265 268.45 302.113 267.893 302.113C267.342 302.113 266.879 302.265 266.504 302.57C266.129 302.869 265.848 303.282 265.661 303.809C265.473 304.331 265.379 304.925 265.379 305.593V305.787C265.379 306.455 265.473 307.052 265.661 307.58C265.848 308.101 266.129 308.514 266.504 308.819C266.885 309.118 267.354 309.267 267.911 309.267ZM276.849 310.585C276.146 310.585 275.586 310.38 275.17 309.97C274.76 309.554 274.555 308.892 274.555 307.984V302.209H273.052V300.926H274.555V298.632H276.287V300.926H278.352V302.209H276.287V307.984C276.287 308.441 276.377 308.778 276.559 308.995C276.741 309.211 276.984 309.32 277.289 309.32C277.494 309.32 277.722 309.302 277.974 309.267C278.226 309.226 278.422 309.191 278.563 309.162L278.8 310.295C278.548 310.372 278.238 310.439 277.869 310.498C277.505 310.556 277.166 310.585 276.849 310.585ZM124.623 330.621C123.849 330.621 123.184 330.43 122.627 330.049C122.077 329.663 121.655 329.126 121.362 328.441C121.069 327.755 120.922 326.956 120.922 326.042V325.857C120.922 324.837 121.069 323.944 121.362 323.176C121.655 322.409 122.08 321.814 122.636 321.392C123.193 320.964 123.861 320.75 124.64 320.75C125.203 320.75 125.698 320.856 126.125 321.067C126.559 321.272 126.928 321.571 127.233 321.963V318.087L125.8 317.841V316.725H127.233H128.964V329.083L130.397 329.329V330.436H127.461L127.321 329.302C127.01 329.736 126.629 330.064 126.178 330.287C125.733 330.509 125.214 330.621 124.623 330.621ZM125.062 329.214C125.578 329.214 126.011 329.097 126.363 328.863C126.714 328.628 127.004 328.297 127.233 327.87V323.458C127.01 323.059 126.72 322.743 126.363 322.508C126.005 322.274 125.578 322.157 125.08 322.157C124.529 322.157 124.075 322.315 123.717 322.631C123.36 322.942 123.093 323.375 122.917 323.932C122.742 324.483 122.654 325.125 122.654 325.857V326.042C122.654 326.997 122.85 327.764 123.243 328.344C123.635 328.924 124.242 329.214 125.062 329.214ZM135.873 330.621C134.994 330.621 134.229 330.421 133.579 330.023C132.928 329.619 132.424 329.059 132.067 328.344C131.715 327.629 131.54 326.803 131.54 325.866V325.479C131.54 324.577 131.724 323.771 132.093 323.062C132.468 322.347 132.963 321.785 133.579 321.375C134.2 320.958 134.876 320.75 135.609 320.75C136.464 320.75 137.179 320.926 137.753 321.278C138.333 321.629 138.77 322.125 139.063 322.763C139.356 323.396 139.502 324.143 139.502 325.004V326.085H133.333L133.306 326.129C133.318 326.739 133.423 327.281 133.623 327.755C133.828 328.224 134.121 328.593 134.501 328.863C134.882 329.132 135.339 329.267 135.873 329.267C136.458 329.267 136.971 329.185 137.411 329.021C137.856 328.851 138.24 328.62 138.562 328.327L139.239 329.452C138.899 329.78 138.448 330.058 137.885 330.287C137.329 330.509 136.658 330.621 135.873 330.621ZM133.385 324.732H137.771V324.503C137.771 324.046 137.689 323.639 137.525 323.282C137.367 322.918 137.126 322.634 136.804 322.429C136.488 322.218 136.089 322.113 135.609 322.113C135.222 322.113 134.871 322.227 134.554 322.456C134.238 322.678 133.977 322.983 133.772 323.37C133.567 323.756 133.432 324.196 133.368 324.688L133.385 324.732ZM145.91 330.621C145.289 330.621 144.75 330.503 144.292 330.269C143.835 330.029 143.455 329.677 143.15 329.214L142.992 330.436H141.498V318.087L140.065 317.841V316.725H143.229V322.051C143.528 321.629 143.897 321.307 144.336 321.084C144.782 320.862 145.3 320.75 145.892 320.75C146.677 320.75 147.345 320.964 147.896 321.392C148.453 321.814 148.877 322.409 149.17 323.176C149.469 323.944 149.619 324.837 149.619 325.857V326.042C149.619 326.956 149.469 327.755 149.17 328.441C148.877 329.126 148.453 329.663 147.896 330.049C147.345 330.43 146.683 330.621 145.91 330.621ZM145.47 329.214C146.285 329.214 146.888 328.924 147.281 328.344C147.679 327.764 147.878 326.997 147.878 326.042V325.857C147.878 325.125 147.791 324.483 147.615 323.932C147.439 323.375 147.172 322.942 146.815 322.631C146.458 322.315 146.003 322.157 145.453 322.157C144.919 322.157 144.468 322.286 144.099 322.543C143.736 322.801 143.446 323.147 143.229 323.581V327.782C143.446 328.221 143.739 328.57 144.108 328.828C144.483 329.085 144.937 329.214 145.47 329.214ZM155.191 330.436V329.329L156.624 329.083V318.087L155.191 317.841V316.725H158.355V322.192C158.683 321.735 159.084 321.38 159.559 321.128C160.034 320.876 160.561 320.75 161.141 320.75C162.161 320.75 162.952 321.055 163.514 321.665C164.077 322.274 164.358 323.211 164.358 324.477V329.083L165.791 329.329V330.436H161.194V329.329L162.626 329.083V324.459C162.626 323.674 162.457 323.094 162.117 322.719C161.783 322.344 161.282 322.157 160.614 322.157C160.139 322.157 159.706 322.271 159.313 322.5C158.926 322.722 158.607 323.027 158.355 323.414V329.083L159.788 329.329V330.436H155.191ZM166.916 330.436V329.329L168.348 329.083V322.289L166.916 322.042V320.926H170.08V329.083L171.512 329.329V330.436H166.916ZM168.26 318.58V316.725H170.08V318.58H168.26ZM176.557 330.621C175.918 330.621 175.321 330.556 174.764 330.427C174.208 330.298 173.616 330.099 172.989 329.83L172.971 327.571H174.281L174.606 328.933C174.934 329.068 175.25 329.167 175.555 329.232C175.866 329.291 176.2 329.32 176.557 329.32C177.26 329.32 177.764 329.185 178.069 328.916C178.374 328.646 178.526 328.312 178.526 327.914C178.526 327.539 178.371 327.222 178.06 326.964C177.755 326.701 177.199 326.478 176.39 326.296C175.242 326.033 174.395 325.681 173.85 325.242C173.311 324.796 173.042 324.205 173.042 323.466C173.042 322.951 173.191 322.491 173.49 322.086C173.789 321.676 174.205 321.351 174.738 321.111C175.271 320.871 175.892 320.75 176.601 320.75C177.322 320.75 177.937 320.833 178.447 320.997C178.962 321.161 179.411 321.38 179.792 321.656L179.879 323.827H178.579L178.297 322.561C178.092 322.409 177.849 322.292 177.568 322.209C177.287 322.127 176.964 322.086 176.601 322.086C176.062 322.086 175.623 322.212 175.283 322.464C174.949 322.716 174.782 323.033 174.782 323.414C174.782 323.636 174.829 323.83 174.922 323.994C175.022 324.158 175.209 324.307 175.485 324.442C175.76 324.571 176.165 324.7 176.698 324.829C178.022 325.139 178.945 325.535 179.466 326.015C179.994 326.496 180.257 327.087 180.257 327.791C180.257 328.593 179.958 329.267 179.361 329.812C178.769 330.351 177.834 330.621 176.557 330.621ZM185.988 330.621C185.109 330.621 184.35 330.416 183.711 330.005C183.079 329.589 182.589 329.018 182.244 328.292C181.898 327.559 181.725 326.724 181.725 325.787V325.593C181.725 324.656 181.898 323.824 182.244 323.097C182.589 322.365 183.079 321.791 183.711 321.375C184.35 320.958 185.103 320.75 185.97 320.75C186.849 320.75 187.605 320.958 188.238 321.375C188.876 321.791 189.369 322.362 189.714 323.088C190.06 323.815 190.233 324.65 190.233 325.593V325.787C190.233 326.73 190.06 327.568 189.714 328.3C189.369 329.027 188.879 329.595 188.247 330.005C187.614 330.416 186.861 330.621 185.988 330.621ZM185.988 329.267C186.539 329.267 186.999 329.118 187.368 328.819C187.743 328.514 188.024 328.101 188.211 327.58C188.405 327.052 188.501 326.455 188.501 325.787V325.593C188.501 324.925 188.405 324.331 188.211 323.809C188.024 323.282 187.743 322.869 187.368 322.57C186.993 322.265 186.527 322.113 185.97 322.113C185.419 322.113 184.957 322.265 184.582 322.57C184.207 322.869 183.925 323.282 183.738 323.809C183.55 324.331 183.457 324.925 183.457 325.593V325.787C183.457 326.455 183.55 327.052 183.738 327.58C183.925 328.101 184.207 328.514 184.582 328.819C184.962 329.118 185.431 329.267 185.988 329.267ZM196.623 330.621C196.001 330.621 195.462 330.503 195.005 330.269C194.548 330.029 194.167 329.677 193.863 329.214L193.705 330.436H192.21V318.087L190.778 317.841V316.725H193.942V322.051C194.241 321.629 194.61 321.307 195.049 321.084C195.495 320.862 196.013 320.75 196.605 320.75C197.39 320.75 198.058 320.964 198.609 321.392C199.166 321.814 199.59 322.409 199.883 323.176C200.182 323.944 200.332 324.837 200.332 325.857V326.042C200.332 326.956 200.182 327.755 199.883 328.441C199.59 329.126 199.166 329.663 198.609 330.049C198.058 330.43 197.396 330.621 196.623 330.621ZM196.183 329.214C196.998 329.214 197.601 328.924 197.994 328.344C198.392 327.764 198.591 326.997 198.591 326.042V325.857C198.591 325.125 198.503 324.483 198.328 323.932C198.152 323.375 197.885 322.942 197.528 322.631C197.17 322.315 196.716 322.157 196.166 322.157C195.632 322.157 195.181 322.286 194.812 322.543C194.449 322.801 194.159 323.147 193.942 323.581V327.782C194.159 328.221 194.452 328.57 194.821 328.828C195.196 329.085 195.65 329.214 196.183 329.214ZM201.465 330.436V329.329L202.898 329.083V318.087L201.465 317.841V316.725H204.629V329.083L206.062 329.329V330.436H201.465ZM210.377 330.621C209.387 330.621 208.634 330.38 208.119 329.9C207.603 329.414 207.345 328.731 207.345 327.852C207.345 327.249 207.509 326.724 207.837 326.279C208.171 325.828 208.652 325.479 209.279 325.233C209.906 324.981 210.656 324.855 211.529 324.855H213.225V323.923C213.225 323.349 213.049 322.904 212.698 322.587C212.352 322.271 211.863 322.113 211.23 322.113C210.832 322.113 210.486 322.163 210.193 322.262C209.9 322.356 209.633 322.488 209.393 322.658L209.208 323.985H207.873V321.805C208.3 321.459 208.798 321.199 209.367 321.023C209.935 320.841 210.565 320.75 211.256 320.75C212.411 320.75 213.316 321.026 213.972 321.577C214.628 322.127 214.957 322.916 214.957 323.941V328.52C214.957 328.643 214.957 328.763 214.957 328.88C214.962 328.998 214.971 329.115 214.983 329.232L215.906 329.329V330.436H213.418C213.366 330.178 213.325 329.947 213.295 329.742C213.266 329.537 213.246 329.332 213.234 329.126C212.9 329.554 212.481 329.912 211.977 330.199C211.479 330.48 210.946 330.621 210.377 330.621ZM210.632 329.17C211.207 329.17 211.731 329.033 212.206 328.757C212.68 328.482 213.02 328.151 213.225 327.764V326.042H211.467C210.67 326.042 210.073 326.232 209.674 326.613C209.276 326.994 209.077 327.418 209.077 327.887C209.077 328.303 209.206 328.623 209.463 328.845C209.721 329.062 210.111 329.17 210.632 329.17ZM221.1 330.621C220.461 330.621 219.864 330.556 219.307 330.427C218.75 330.298 218.159 330.099 217.532 329.83L217.514 327.571H218.824L219.149 328.933C219.477 329.068 219.793 329.167 220.098 329.232C220.409 329.291 220.743 329.32 221.1 329.32C221.803 329.32 222.307 329.185 222.612 328.916C222.917 328.646 223.069 328.312 223.069 327.914C223.069 327.539 222.914 327.222 222.603 326.964C222.298 326.701 221.742 326.478 220.933 326.296C219.785 326.033 218.938 325.681 218.393 325.242C217.854 324.796 217.584 324.205 217.584 323.466C217.584 322.951 217.734 322.491 218.033 322.086C218.332 321.676 218.748 321.351 219.281 321.111C219.814 320.871 220.435 320.75 221.144 320.75C221.865 320.75 222.48 320.833 222.99 320.997C223.505 321.161 223.954 321.38 224.334 321.656L224.422 323.827H223.122L222.84 322.561C222.635 322.409 222.392 322.292 222.111 322.209C221.83 322.127 221.507 322.086 221.144 322.086C220.605 322.086 220.166 322.212 219.826 322.464C219.492 322.716 219.325 323.033 219.325 323.414C219.325 323.636 219.372 323.83 219.465 323.994C219.565 324.158 219.752 324.307 220.028 324.442C220.303 324.571 220.708 324.7 221.241 324.829C222.565 325.139 223.488 325.535 224.009 326.015C224.537 326.496 224.8 327.087 224.8 327.791C224.8 328.593 224.501 329.267 223.904 329.812C223.312 330.351 222.377 330.621 221.1 330.621ZM226.013 330.436V329.329L227.446 329.083V318.087L226.013 317.841V316.725H229.177V322.192C229.505 321.735 229.907 321.38 230.381 321.128C230.856 320.876 231.383 320.75 231.963 320.75C232.983 320.75 233.774 321.055 234.336 321.665C234.899 322.274 235.18 323.211 235.18 324.477V329.083L236.613 329.329V330.436H232.016V329.329L233.449 329.083V324.459C233.449 323.674 233.279 323.094 232.939 322.719C232.605 322.344 232.104 322.157 231.436 322.157C230.961 322.157 230.528 322.271 230.135 322.5C229.749 322.722 229.429 323.027 229.177 323.414V329.083L230.61 329.329V330.436H226.013ZM240.875 330.621C239.885 330.621 239.132 330.38 238.617 329.9C238.101 329.414 237.843 328.731 237.843 327.852C237.843 327.249 238.007 326.724 238.335 326.279C238.669 325.828 239.15 325.479 239.777 325.233C240.404 324.981 241.154 324.855 242.027 324.855H243.723V323.923C243.723 323.349 243.547 322.904 243.196 322.587C242.85 322.271 242.361 322.113 241.728 322.113C241.33 322.113 240.984 322.163 240.691 322.262C240.398 322.356 240.131 322.488 239.891 322.658L239.707 323.985H238.371V321.805C238.798 321.459 239.296 321.199 239.865 321.023C240.433 320.841 241.063 320.75 241.754 320.75C242.909 320.75 243.814 321.026 244.47 321.577C245.126 322.127 245.455 322.916 245.455 323.941V328.52C245.455 328.643 245.455 328.763 245.455 328.88C245.46 328.998 245.469 329.115 245.481 329.232L246.404 329.329V330.436H243.917C243.864 330.178 243.823 329.947 243.793 329.742C243.764 329.537 243.744 329.332 243.732 329.126C243.398 329.554 242.979 329.912 242.475 330.199C241.977 330.48 241.444 330.621 240.875 330.621ZM241.13 329.17C241.705 329.17 242.229 329.033 242.704 328.757C243.178 328.482 243.518 328.151 243.723 327.764V326.042H241.965C241.168 326.042 240.571 326.232 240.172 326.613C239.774 326.994 239.575 327.418 239.575 327.887C239.575 328.303 239.704 328.623 239.961 328.845C240.219 329.062 240.609 329.17 241.13 329.17ZM251.484 330.621C250.71 330.621 250.045 330.43 249.489 330.049C248.938 329.663 248.516 329.126 248.223 328.441C247.93 327.755 247.784 326.956 247.784 326.042V325.857C247.784 324.837 247.93 323.944 248.223 323.176C248.516 322.409 248.941 321.814 249.498 321.392C250.054 320.964 250.722 320.75 251.501 320.75C252.064 320.75 252.559 320.856 252.987 321.067C253.42 321.272 253.79 321.571 254.094 321.963V318.087L252.662 317.841V316.725H254.094H255.826V329.083L257.258 329.329V330.436H254.323L254.182 329.302C253.872 329.736 253.491 330.064 253.04 330.287C252.594 330.509 252.076 330.621 251.484 330.621ZM251.923 329.214C252.439 329.214 252.873 329.097 253.224 328.863C253.576 328.628 253.866 328.297 254.094 327.87V323.458C253.872 323.059 253.582 322.743 253.224 322.508C252.867 322.274 252.439 322.157 251.941 322.157C251.39 322.157 250.936 322.315 250.579 322.631C250.221 322.942 249.955 323.375 249.779 323.932C249.603 324.483 249.515 325.125 249.515 325.857V326.042C249.515 326.997 249.711 327.764 250.104 328.344C250.497 328.924 251.103 329.214 251.923 329.214ZM258.392 330.436V329.329L259.825 329.083V322.289L258.392 322.042V320.926H261.556V329.083L262.989 329.329V330.436H258.392ZM259.737 318.58V316.725H261.556V318.58H259.737Z" fill="#770613"/>
<line x1="104.787" y1="224.5" x2="274.787" y2="224.5" stroke="#770613" stroke-width="3" stroke-linecap="round"/>
<defs>
<filter id="filter0_d_1_3555" x="167.477" y="0" width="51" height="51" filterUnits="userSpaceOnUse" color-interpolation-filters="sRGB">
<feFlood flood-opacity="0" result="BackgroundImageFix"/>
<feColorMatrix in="SourceAlpha" type="matrix" values="0 0 0 0 0 0 0 0 0 0 0 0 0 0 0 0 0 0 127 0" result="hardAlpha"/>
<feOffset/>
<feGaussianBlur stdDeviation="5"/>
<feComposite in2="hardAlpha" operator="out"/>
<feColorMatrix type="matrix" values="0 0 0 0 1 0 0 0 0 1 0 0 0 0 1 0 0 0 0.3 0"/>
<feBlend mode="normal" in2="BackgroundImageFix" result="effect1_dropShadow_1_3555"/>
<feBlend mode="normal" in="SourceGraphic" in2="effect1_dropShadow_1_3555" result="shape"/>
</filter>
</defs>
</svg>
